<?xml version="1.0" encoding="UTF-8"?>
<svg version="1.1" xmlns="http://www.w3.org/2000/svg" width="512" height="512">
<path d="M0 0 C1.01790619 0.00215515 2.03581238 0.0043103 3.08456421 0.00653076 C17.69363523 0.05620146 32.02575853 0.30709809 46.375 3.3125 C47.34985352 3.51117676 48.32470703 3.70985352 49.32910156 3.91455078 C97.7109774 14.03517194 141.69928269 35.9516877 177.375 70.3125 C178.3640332 71.26068604 178.3640332 71.26068604 179.37304688 72.22802734 C188.86130305 81.37247479 197.6012044 90.66984009 205.375 101.3125 C206.23306152 102.46355017 207.09113451 103.61459177 207.94921875 104.765625 C213.98736829 112.95680614 219.34595521 121.47054105 224.375 130.3125 C224.73948242 130.94430176 225.10396484 131.57610352 225.47949219 132.22705078 C247.08534998 169.97532572 256.85198095 212.74189997 256.6875 255.9375 C256.68534485 256.95540619 256.6831897 257.97331238 256.68096924 259.02206421 C256.63129854 273.63113523 256.38040191 287.96325853 253.375 302.3125 C253.07698486 303.77478027 253.07698486 303.77478027 252.77294922 305.26660156 C242.65232806 353.6484774 220.7358123 397.63678269 186.375 433.3125 C185.74287598 433.97185547 185.11075195 434.63121094 184.45947266 435.31054688 C175.31502521 444.79880305 166.01765991 453.5387044 155.375 461.3125 C154.22394983 462.17056152 153.07290823 463.02863451 151.921875 463.88671875 C143.73224019 469.92427396 135.22961724 475.30707302 126.375 480.3125 C125.66778809 480.7146875 124.96057617 481.116875 124.23193359 481.53125 C101.09654164 494.5566741 75.92537591 503.30551461 49.9375 508.625 C49.21860596 508.77235596 48.49971191 508.91971191 47.7590332 509.0715332 C33.08339502 511.86090125 18.55831162 512.66142619 3.64770508 512.62817383 C0.70811513 512.6250221 -2.2304558 512.64854926 -5.16992188 512.67382812 C-18.54306192 512.71848737 -31.43916711 511.51301542 -44.625 509.3125 C-46.33055054 509.03031616 -46.33055054 509.03031616 -48.07055664 508.74243164 C-91.33802759 500.97044532 -132.38793216 480.98345309 -165.625 452.3125 C-166.37007813 451.67828125 -167.11515625 451.0440625 -167.8828125 450.390625 C-181.38779833 438.57948485 -194.05918743 425.82889772 -204.625 411.3125 C-205.48149066 410.16255169 -206.33826433 409.01281411 -207.1953125 407.86328125 C-213.23534209 399.67315742 -218.61867614 391.16870382 -223.625 382.3125 C-224.0271875 381.60528809 -224.429375 380.89807617 -224.84375 380.16943359 C-237.8691741 357.03404164 -246.61801461 331.86287591 -251.9375 305.875 C-252.08485596 305.15610596 -252.23221191 304.43721191 -252.3840332 303.6965332 C-255.35789088 288.05024391 -255.99800362 272.57681954 -255.9375 256.6875 C-255.93534485 255.66959381 -255.9331897 254.65168762 -255.93096924 253.60293579 C-255.88129854 238.99386477 -255.63040191 224.66174147 -252.625 210.3125 C-252.42632324 209.33764648 -252.22764648 208.36279297 -252.02294922 207.35839844 C-241.90232806 158.9765226 -219.9858123 114.98821731 -185.625 79.3125 C-184.99287598 78.65314453 -184.36075195 77.99378906 -183.70947266 77.31445312 C-174.56502521 67.82619695 -165.26765991 59.0862956 -154.625 51.3125 C-153.47394983 50.45443848 -152.32290823 49.59636549 -151.171875 48.73828125 C-142.98224019 42.70072604 -134.47961724 37.31792698 -125.625 32.3125 C-124.91778809 31.9103125 -124.21057617 31.508125 -123.48193359 31.09375 C-100.34654164 18.0683259 -75.17537591 9.31948539 -49.1875 4 C-48.46860596 3.85264404 -47.74971191 3.70528809 -47.0090332 3.5534668 C-31.36274391 0.57960912 -15.88931954 -0.06050362 0 0 Z M-173.625 105.3125 C-177.59813241 109.76146339 -181.19024503 114.43948984 -184.625 119.3125 C-185.10485352 119.99103027 -185.58470703 120.66956055 -186.07910156 121.36865234 C-222.54761643 173.45149286 -237.06992094 235.41614133 -226.12109375 298.20214844 C-215.70176121 353.32813562 -184.71093368 405.55322548 -139.328125 439.05371094 C-137.66465069 440.28319396 -136.01972448 441.53466212 -134.375 442.7890625 C-86.80711682 478.48443222 -25.36139909 492.23363526 33.1328125 484.28125 C71.36074814 478.58647596 107.58803299 463.68706349 138.375 440.3125 C139.25285156 439.64734375 140.13070313 438.9821875 141.03515625 438.296875 C147.81806351 433.00814224 154.14436318 427.23198911 160.375 421.3125 C160.91060547 420.80557617 161.44621094 420.29865234 161.99804688 419.77636719 C169.7538253 412.38486136 176.68928664 404.6451674 183.08398438 396.04785156 C183.92507113 394.91728336 184.77244514 393.79135704 185.62695312 392.67089844 C221.40477542 345.75148806 235.9902962 284.9874185 228.78100586 226.78051758 C220.77120104 167.99909993 190.24318686 111.39093189 142.64404297 75.10302734 C140.90257828 73.81712299 139.1444042 72.55966955 137.375 71.3125 C136.69646973 70.83264648 136.01793945 70.35279297 135.31884766 69.85839844 C54.1020887 12.99025237 -52.3869456 11.91716938 -173.625 105.3125 Z " fill="#000000" transform="translate(255.625,-0.3125)"/>
<path d="M0 0 C3.55268737 2.1920837 5.53990255 4.11362114 7 8 C7.1803322 10.66633546 7.25283647 13.22510966 7.22705078 15.88964844 C7.22734283 16.68027176 7.22763489 17.47089508 7.22793579 18.28547668 C7.22654467 20.8935552 7.21099379 23.50134651 7.1953125 26.109375 C7.19158159 27.91969649 7.18873499 29.73002 7.18673706 31.54034424 C7.17910672 36.30134675 7.15946334 41.06222692 7.1373291 45.82318115 C7.1168578 50.68288518 7.10773259 55.54260901 7.09765625 60.40234375 C7.07621691 69.93494953 7.04208815 79.46746459 7 89 C8.50217575 88.98667633 8.50217575 88.98667633 10.03469849 88.9730835 C19.48053027 88.89193483 28.92629116 88.83200446 38.37239265 88.79275131 C43.22855299 88.77189225 48.08443152 88.7436053 52.94042969 88.69824219 C57.62831256 88.65472449 62.31592468 88.63085024 67.00399399 88.62049103 C68.79095598 88.61311029 70.57790344 88.59869729 72.36474991 88.57707977 C74.87125718 88.54796655 77.37665115 88.54404723 79.88330078 88.54589844 C80.61913895 88.53151733 81.35497711 88.51713623 82.1131134 88.50231934 C87.21162757 88.54296185 90.07761843 89.78924246 94 93 C97.13201418 97.34440676 97.3717532 100.75873476 96.578125 105.8828125 C95.55034326 109.64671591 93.54124416 111.95471378 90.35638428 114.11471558 C86.96964647 115.38709982 83.6772484 115.2615689 80.11035156 115.22705078 C79.31972824 115.22734283 78.52910492 115.22763489 77.71452332 115.22793579 C75.1064448 115.22654467 72.49865349 115.21099379 69.890625 115.1953125 C68.08030351 115.19158159 66.26998 115.18873499 64.45965576 115.18673706 C59.69865325 115.17910672 54.93777308 115.15946334 50.17681885 115.1373291 C45.31711482 115.1168578 40.45739099 115.10773259 35.59765625 115.09765625 C26.06505047 115.07621691 16.53253541 115.04208815 7 115 C7.00888245 116.0014505 7.01776489 117.002901 7.0269165 118.03469849 C7.10806517 127.48053027 7.16799554 136.92629116 7.20724869 146.37239265 C7.22810775 151.22855299 7.2563947 156.08443152 7.30175781 160.94042969 C7.34527551 165.62831256 7.36914976 170.31592468 7.37950897 175.00399399 C7.38688971 176.79095598 7.40130271 178.57790344 7.42292023 180.36474991 C7.45203345 182.87125718 7.45595277 185.37665115 7.45410156 187.88330078 C7.46848267 188.61913895 7.48286377 189.35497711 7.49768066 190.1131134 C7.45703815 195.21162757 6.21075754 198.07761843 3 202 C-1.34440676 205.13201418 -4.75873476 205.3717532 -9.8828125 204.578125 C-13.64671591 203.55034326 -15.95471378 201.54124416 -18.11471558 198.35638428 C-19.38709982 194.96964647 -19.2615689 191.6772484 -19.22705078 188.11035156 C-19.22734283 187.31972824 -19.22763489 186.52910492 -19.22793579 185.71452332 C-19.22654467 183.1064448 -19.21099379 180.49865349 -19.1953125 177.890625 C-19.19158159 176.08030351 -19.18873499 174.26998 -19.18673706 172.45965576 C-19.17910672 167.69865325 -19.15946334 162.93777308 -19.1373291 158.17681885 C-19.1168578 153.31711482 -19.10773259 148.45739099 -19.09765625 143.59765625 C-19.07621691 134.06505047 -19.04208815 124.53253541 -19 115 C-20.50217575 115.01332367 -20.50217575 115.01332367 -22.03469849 115.0269165 C-31.48053027 115.10806517 -40.92629116 115.16799554 -50.37239265 115.20724869 C-55.22855299 115.22810775 -60.08443152 115.2563947 -64.94042969 115.30175781 C-69.62831256 115.34527551 -74.31592468 115.36914976 -79.00399399 115.37950897 C-80.79095598 115.38688971 -82.57790344 115.40130271 -84.36474991 115.42292023 C-86.87125718 115.45203345 -89.37665115 115.45595277 -91.88330078 115.45410156 C-92.61913895 115.46848267 -93.35497711 115.48286377 -94.1131134 115.49768066 C-99.21162757 115.45703815 -102.07761843 114.21075754 -106 111 C-109.13201418 106.65559324 -109.3717532 103.24126524 -108.578125 98.1171875 C-107.55034326 94.35328409 -105.54124416 92.04528622 -102.35638428 89.88528442 C-98.96964647 88.61290018 -95.6772484 88.7384311 -92.11035156 88.77294922 C-91.31972824 88.77265717 -90.52910492 88.77236511 -89.71452332 88.77206421 C-87.1064448 88.77345533 -84.49865349 88.78900621 -81.890625 88.8046875 C-80.08030351 88.80841841 -78.26998 88.81126501 -76.45965576 88.81326294 C-71.69865325 88.82089328 -66.93777308 88.84053666 -62.17681885 88.8626709 C-57.31711482 88.8831422 -52.45739099 88.89226741 -47.59765625 88.90234375 C-38.06505047 88.92378309 -28.53253541 88.95791185 -19 89 C-19.00888245 87.9985495 -19.01776489 86.997099 -19.0269165 85.96530151 C-19.10806517 76.51946973 -19.16799554 67.07370884 -19.20724869 57.62760735 C-19.22810775 52.77144701 -19.2563947 47.91556848 -19.30175781 43.05957031 C-19.34527551 38.37168744 -19.36914976 33.68407532 -19.37950897 28.99600601 C-19.38688971 27.20904402 -19.40130271 25.42209656 -19.42292023 23.63525009 C-19.45203345 21.12874282 -19.45595277 18.62334885 -19.45410156 16.11669922 C-19.46848267 15.38086105 -19.48286377 14.64502289 -19.49768066 13.8868866 C-19.45703815 8.78837243 -18.21075754 5.92238157 -15 2 C-10.08715913 -1.54181551 -5.672626 -1.54898275 0 0 Z " fill="#000000" transform="translate(262,154)"/>
</svg>
