<?xml version="1.0" encoding="UTF-8"?>
<svg version="1.1" xmlns="http://www.w3.org/2000/svg" width="416" height="420">
<path d="M0 0 C5.76399279 4.34233685 8.58912407 11.0792153 11.9375 17.3125 C13.27394742 19.76690161 14.61725198 22.21752383 15.9609375 24.66796875 C16.29938187 25.28679932 16.63782623 25.90562988 16.98652649 26.54321289 C20.23575022 32.46836798 23.63199408 38.3031081 27.0625 44.125 C31.80858905 52.19622133 36.44726754 60.31814919 41 68.5 C45.57566642 76.72203025 50.23587865 84.8857113 55 93 C60.30900776 102.0458518 65.48840439 111.15548331 70.58300781 120.32373047 C73.79583482 126.09652502 77.05162287 131.84051187 80.3671875 137.5546875 C81.10438937 138.82906689 81.84153167 140.10348074 82.57861328 141.37792969 C83.65202622 143.23339634 84.7278318 145.08720951 85.81243896 146.93615723 C86.81397896 148.64361367 87.80560316 150.35687443 88.796875 152.0703125 C89.65297363 153.53621826 89.65297363 153.53621826 90.52636719 155.03173828 C92.16288012 158.32808093 93.22281162 161.40274309 94 165 C91.95454545 170.52272727 91.95454545 170.52272727 89 172 C86.56590337 172.10622053 84.15986969 172.15220555 81.72512817 172.15390015 C80.96670085 172.1582824 80.20827352 172.16266465 79.42686355 172.1671797 C76.87197559 172.18059111 74.31712214 172.18675175 71.76220703 172.19287109 C69.93591149 172.20077009 68.10961751 172.20903891 66.2833252 172.21765137 C60.27483617 172.24389047 54.2663401 172.25917886 48.2578125 172.2734375 C46.19192373 172.27879602 44.12603501 172.28417352 42.06014633 172.28956985 C33.46971046 172.31119954 24.87927649 172.32993816 16.28882027 172.34119225 C3.96317127 172.35744427 -8.36216311 172.39065144 -20.68769348 172.44759309 C-29.34674811 172.48623783 -38.0057184 172.50581833 -46.66485703 172.51111281 C-51.84063706 172.5147732 -57.01608168 172.52686757 -62.19176865 172.55921555 C-67.05916411 172.58920079 -71.92601954 172.59564227 -76.79348755 172.58383179 C-78.58176812 172.58361026 -80.37007307 172.59198017 -82.15826797 172.60948563 C-84.59655564 172.63205957 -87.03286539 172.6239391 -89.47116089 172.60800171 C-90.18186167 172.6218838 -90.89256244 172.63576588 -91.62479961 172.65006864 C-95.31498168 172.59047521 -96.74395874 172.24606736 -99.44574165 169.64953041 C-101.34283867 166.41556596 -101.48930777 164.69719269 -101 161 C-100.02880859 158.49658203 -100.02880859 158.49658203 -98.6484375 156.0078125 C-98.13418213 155.0681665 -97.61992676 154.12852051 -97.09008789 153.16040039 C-96.52410889 152.15871826 -95.95812988 151.15703613 -95.375 150.125 C-94.79032959 149.06853271 -94.20565918 148.01206543 -93.60327148 146.92358398 C-88.95358969 138.56950919 -84.1471878 130.30646927 -79.29980469 122.06591797 C-75.15152695 115.00927471 -71.1086211 107.90078313 -67.125 100.75 C-62.17467927 91.86709053 -57.17635432 83.0132892 -52.125 74.1875 C-51.79230103 73.60604218 -51.45960205 73.02458435 -51.11682129 72.42550659 C-48.40623208 67.68885265 -45.69281413 62.95382098 -42.97924805 58.21887207 C-40.60983991 54.08417265 -38.24183273 49.94867418 -35.875 45.8125 C-35.38141998 44.95037399 -35.38141998 44.95037399 -34.87786865 44.0708313 C-31.22926562 37.69560096 -27.60243117 31.30906123 -24.0234375 24.89453125 C-23.07041748 23.18656372 -23.07041748 23.18656372 -22.09814453 21.4440918 C-20.90127234 19.29462318 -19.70678078 17.14382652 -18.51513672 14.99145508 C-8.97321652 -2.16650633 -8.97321652 -2.16650633 0 0 Z M-5 26 C-5.39155273 26.70793701 -5.78310547 27.41587402 -6.18652344 28.14526367 C-14.15200925 42.53824089 -22.17338398 56.89338228 -30.36767578 71.15771484 C-33.54220823 76.68537066 -36.70986656 82.21695856 -39.875 87.75 C-40.21389252 88.34232422 -40.55278503 88.93464844 -40.90194702 89.54492188 C-46.3128693 99.00619383 -51.65984992 108.50183488 -56.96972656 118.02026367 C-61.28525384 125.74903723 -65.66236344 133.44087895 -70.09472656 141.10327148 C-70.55073242 141.89548096 -71.00673828 142.68769043 -71.4765625 143.50390625 C-71.86924316 144.18267822 -72.26192383 144.8614502 -72.66650391 145.56079102 C-74.54093037 148.98946088 -76.25247308 152.50494616 -78 156 C-29.16 156 19.68 156 70 156 C68.54877547 152.37193866 67.12455815 149.25771216 65.234375 145.88671875 C64.68144775 144.89881348 64.12852051 143.9109082 63.55883789 142.89306641 C62.96192139 141.83522949 62.36500488 140.77739258 61.75 139.6875 C61.12665771 138.57810059 60.50331543 137.46870117 59.86108398 136.32568359 C55.10348488 127.88645955 50.23086609 119.51753774 45.32324219 111.16479492 C40.27613539 102.5441738 35.43409905 93.81696607 30.60791016 85.07128906 C25.93742551 76.63030439 21.11908756 68.28651925 16.22998047 59.97070312 C9.64536259 48.74508567 3.31833122 37.37705943 -3 26 C-3.66 26 -4.32 26 -5 26 Z " fill="#0C0C0C" transform="translate(107,20)"/>
<path d="M0 0 C1.88048572 1.53843677 3.7018165 3.15063724 5.47485352 4.81176758 C6.24677331 5.53300041 6.24677331 5.53300041 7.03428745 6.2688036 C13.44079901 12.29158109 19.67572457 18.49167986 25.90234375 24.69921875 C26.53601931 25.33006693 27.16969486 25.96091511 27.82257271 26.6108799 C31.16375432 29.93722781 34.50217562 33.2663152 37.83813477 36.59790039 C41.26294942 40.01719412 44.69698054 43.42707612 48.13315487 46.83494854 C50.79859289 49.4817168 53.45725448 52.13521427 56.11413765 54.7905674 C57.377428 56.05085025 58.64319606 57.30865494 59.91157341 58.56381798 C69.63423972 68.19221796 77.87285964 76.40350484 78.3125 90.875 C77.92577306 108.12731864 65.02165344 118.29233381 53.59765625 129.703125 C52.19171274 131.11296276 50.78599047 132.52302118 49.38047791 133.93328857 C46.44624645 136.87494634 43.50821673 139.81274569 40.56762695 142.74804688 C36.8124286 146.49743869 33.06875113 150.25810553 29.32805729 154.02196121 C26.43270079 156.93208965 23.53040408 159.83521901 20.62609673 162.73641205 C19.24315636 164.11986333 17.8625559 165.505658 16.48442268 166.89389801 C14.5541198 168.83662263 12.61440216 170.76945767 10.67211914 172.70019531 C9.83408752 173.54969254 9.83408752 173.54969254 8.97912598 174.41635132 C1.47001839 181.82780875 -6.1689617 185.98725327 -16.875 186.3125 C-34.12731864 185.92577306 -44.29233381 173.02165344 -55.703125 161.59765625 C-57.11296276 160.19171274 -58.52302118 158.78599047 -59.93328857 157.38047791 C-62.87494634 154.44624645 -65.81274569 151.50821673 -68.74804688 148.56762695 C-72.49743869 144.8124286 -76.25810553 141.06875113 -80.02196121 137.32805729 C-82.93208965 134.43270079 -85.83521901 131.53040408 -88.73641205 128.62609673 C-90.11986333 127.24315636 -91.505658 125.8625559 -92.89389801 124.48442268 C-94.83662263 122.5541198 -96.76945767 120.61440216 -98.70019531 118.67211914 C-99.54969254 117.83408752 -99.54969254 117.83408752 -100.41635132 116.97912598 C-107.78270369 109.51571773 -111.95022927 101.88297046 -112.375 91.25 C-112.12927793 81.84235485 -109.64943372 75.42162459 -103.18823242 68.52514648 C-102.46699959 67.75322669 -102.46699959 67.75322669 -101.7311964 66.96571255 C-95.70841891 60.55920099 -89.50832014 54.32427543 -83.30078125 48.09765625 C-82.66993307 47.46398069 -82.03908489 46.83030514 -81.3891201 46.17742729 C-78.06277219 42.83624568 -74.7336848 39.49782438 -71.40209961 36.16186523 C-67.98280588 32.73705058 -64.57292388 29.30301946 -61.16505146 25.86684513 C-58.5182832 23.20140711 -55.86478573 20.54274552 -53.2094326 17.88586235 C-51.94914975 16.622572 -50.69134506 15.35680394 -49.43618202 14.08842659 C-35.52601443 0.04207225 -19.79275172 -10.7956801 0 0 Z M-32.79980469 22.42749023 C-33.45095749 23.07499237 -34.10211029 23.72249451 -34.772995 24.38961792 C-36.91340953 26.52195691 -39.04281805 28.6649192 -41.171875 30.80859375 C-42.66015367 32.29739129 -44.14895132 33.7856702 -45.63824463 35.27345276 C-48.75300002 38.38829774 -51.86253368 41.50823467 -54.96826172 44.63208008 C-58.95007934 48.63661368 -62.94290625 52.62994894 -66.93946457 56.61976528 C-70.01273726 59.68969786 -73.08100303 62.76459421 -76.14768219 65.84111214 C-77.61836622 67.31564548 -79.0904013 68.78883258 -80.56380463 70.26064873 C-82.6201091 72.31658258 -84.66979732 74.37888953 -86.71777344 76.44311523 C-87.3276561 77.05052048 -87.93753876 77.65792572 -88.56590271 78.28373718 C-89.1237294 78.84864868 -89.68155609 79.41356018 -90.25628662 79.99559021 C-90.74073116 80.48208762 -91.2251757 80.96858503 -91.72430038 81.46982479 C-94.71387975 85.05576319 -95.25393604 88.15656375 -95.4609375 92.8046875 C-94.1860914 98.87641216 -88.78955686 103.49800168 -84.55078125 107.70800781 C-83.59393936 108.67010666 -83.59393936 108.67010666 -82.61776733 109.65164185 C-80.52099326 111.75717413 -78.41704121 113.85535832 -76.3125 115.953125 C-74.8477706 117.41920241 -73.38333814 118.88557654 -71.91918945 120.35223389 C-68.85594263 123.41842369 -65.78912149 126.48098074 -62.71972656 129.54101562 C-58.78531998 133.46400808 -54.85998705 137.39593784 -50.93727112 141.330616 C-47.91775238 144.35735839 -44.89349051 147.37932527 -41.86776733 150.3998642 C-40.41821463 151.84808286 -38.97014582 153.29778835 -37.52359009 154.74900055 C-35.50359799 156.77406827 -33.47731164 158.79261991 -31.44921875 160.80957031 C-30.85273529 161.41010223 -30.25625183 162.01063416 -29.64169312 162.62936401 C-24.94941426 167.27396662 -22.01373799 169.15728292 -15.1953125 169.4609375 C-9.12358784 168.1860914 -4.50199832 162.78955686 -0.29199219 158.55078125 C0.34940704 157.91288666 0.99080627 157.27499207 1.65164185 156.61776733 C3.75717413 154.52099326 5.85535832 152.41704121 7.953125 150.3125 C9.41920241 148.8477706 10.88557654 147.38333814 12.35223389 145.91918945 C15.41842369 142.85594263 18.48098074 139.78912149 21.54101562 136.71972656 C25.46400808 132.78531998 29.39593784 128.85998705 33.330616 124.93727112 C36.35735839 121.91775238 39.37932527 118.89349051 42.3998642 115.86776733 C43.84808286 114.41821463 45.29778835 112.97014582 46.74900055 111.52359009 C48.77406827 109.50359799 50.79261991 107.47731164 52.80957031 105.44921875 C53.41010223 104.85273529 54.01063416 104.25625183 54.62936401 103.64169312 C58.42747971 99.80459025 60.79879587 97.17300458 61.3125 91.625 C60.6825741 84.31785958 56.55719212 80.11936855 51.58837891 75.20019531 C50.94248306 74.54904251 50.29658722 73.89788971 49.63111877 73.227005 C47.50372823 71.08645934 45.36560965 68.95701755 43.2265625 66.828125 C41.74023273 65.33977346 40.25434846 63.8509769 38.76889038 62.36175537 C35.65839887 59.24684677 32.54256041 56.13741449 29.42285156 53.03173828 C25.42563155 49.05162434 21.44205021 45.05817423 17.4623661 41.06053543 C14.39830552 37.9856333 11.32713422 34.91791358 8.25376511 31.85231781 C6.78196379 30.38251669 5.31238485 28.91048667 3.84508133 27.43619537 C1.79403117 25.37752338 -0.26639613 23.32871853 -2.32958984 21.28222656 C-2.93339981 20.6723439 -3.53720978 20.06246124 -4.15931702 19.43409729 C-8.12660304 15.52607662 -11.2483523 13.29272848 -16.9375 12.6875 C-23.90591277 13.39856253 -28.11432915 17.68250091 -32.79980469 22.42749023 Z " fill="#161616" transform="translate(336,229)"/>
<path d="M0 0 C1.07721313 -0.00671722 2.15442627 -0.01343445 3.26428223 -0.02035522 C6.81978998 -0.03932771 10.37510885 -0.04325924 13.93066406 -0.04541016 C16.40920082 -0.05183915 18.88773681 -0.05856759 21.36627197 -0.06558228 C26.5612565 -0.07755358 31.75617453 -0.0812633 36.95117188 -0.08007812 C43.59325039 -0.07987508 50.23488956 -0.10716377 56.87688828 -0.14162254 C61.99686626 -0.163911 67.11674148 -0.16791504 72.236763 -0.16685867 C74.68466924 -0.1692122 77.13257842 -0.17802163 79.58043671 -0.19352341 C83.01225879 -0.21321956 86.44316166 -0.20732999 89.875 -0.1953125 C90.87690369 -0.20655151 91.87880737 -0.21779053 92.91107178 -0.22937012 C101.98672095 -0.14901281 109.93854196 2.30510788 116.66503906 8.58740234 C123.85544255 16.58489194 125.49622762 24.60700969 125.48681641 35.09423828 C125.49353363 36.17145142 125.50025085 37.24866455 125.50717163 38.35852051 C125.52614412 41.91402827 125.53007565 45.46934713 125.53222656 49.02490234 C125.53865555 51.5034391 125.54538399 53.98197509 125.55239868 56.46051025 C125.56436999 61.65549478 125.5680797 66.85041281 125.56689453 72.04541016 C125.56669148 78.68748868 125.59398017 85.32912784 125.62843895 91.97112656 C125.6507274 97.09110454 125.65473144 102.21097976 125.65367508 107.33100128 C125.65602861 109.77890752 125.66483804 112.2268167 125.68033981 114.67467499 C125.70003597 118.10649707 125.6941464 121.53739994 125.68212891 124.96923828 C125.69336792 125.97114197 125.70460693 126.97304565 125.71618652 128.00531006 C125.63582921 137.08095923 123.18170853 145.03278024 116.89941406 151.75927734 C108.90192447 158.94968083 100.87980672 160.5904659 90.39257812 160.58105469 C89.31536499 160.58777191 88.23815186 160.59448914 87.1282959 160.60140991 C83.57278814 160.6203824 80.01746927 160.62431393 76.46191406 160.62646484 C73.98337731 160.63289384 71.50484132 160.63962227 69.02630615 160.64663696 C63.83132163 160.65860827 58.63640359 160.66231798 53.44140625 160.66113281 C46.79932773 160.66092977 40.15768857 160.68821845 33.51568985 160.72267723 C28.39571187 160.74496568 23.27583665 160.74896973 18.15581512 160.74791336 C15.70790888 160.75026689 13.25999971 160.75907632 10.81214142 160.77457809 C7.38031933 160.79427425 3.94941647 160.78838468 0.51757812 160.77636719 C-0.48432556 160.7876062 -1.48622925 160.79884521 -2.51849365 160.8104248 C-11.59414282 160.73006749 -19.54596383 158.27594681 -26.27246094 151.99365234 C-33.46286443 143.99616275 -35.10364949 135.974045 -35.09423828 125.48681641 C-35.10431412 123.8709967 -35.10431412 123.8709967 -35.11459351 122.22253418 C-35.133566 118.66702642 -35.13749752 115.11170755 -35.13964844 111.55615234 C-35.14607743 109.07761559 -35.15280587 106.5990796 -35.15982056 104.12054443 C-35.17179186 98.92555991 -35.17550158 93.73064187 -35.17431641 88.53564453 C-35.17411336 81.89356601 -35.20140205 75.25192685 -35.23586082 68.60992813 C-35.25814928 63.48995015 -35.26215332 58.37007493 -35.26109695 53.25005341 C-35.26345048 50.80214717 -35.27225991 48.35423799 -35.28776169 45.9063797 C-35.30745784 42.47455761 -35.30156827 39.04365475 -35.28955078 35.61181641 C-35.30078979 34.60991272 -35.31202881 33.60800903 -35.3236084 32.57574463 C-35.24325109 23.50009546 -32.7891304 15.54827445 -26.50683594 8.82177734 C-18.50934634 1.63137385 -10.48722859 -0.00941121 0 0 Z M-14.74121094 22.04052734 C-18.75570911 28.36640325 -19.09932636 34.49371836 -19.07836914 41.75488281 C-19.08348007 42.67779114 -19.088591 43.60069946 -19.09385681 44.55157471 C-19.10769887 47.58702166 -19.10680002 50.62224017 -19.10449219 53.65771484 C-19.10838219 55.77849409 -19.11271749 57.89927257 -19.11747742 60.02005005 C-19.12492815 64.460007 -19.12465674 68.89988442 -19.11938477 73.33984375 C-19.11359304 79.01452038 -19.13051974 84.68887032 -19.15372944 90.36349297 C-19.16849976 94.74225755 -19.16933396 99.12094407 -19.16621971 103.49972916 C-19.16673131 105.59119437 -19.17193851 107.68266415 -19.18203163 109.77410507 C-19.19444208 112.70541025 -19.18757659 115.63608682 -19.17602539 118.56738281 C-19.18366913 119.42169891 -19.19131287 120.27601501 -19.19918823 121.15621948 C-19.14621402 127.2736948 -18.48014012 133.94300433 -14.5287981 138.88511467 C-8.45501252 144.41466155 -1.08333903 144.58753628 6.66064453 144.56518555 C7.58355286 144.57029648 8.50646118 144.57540741 9.45733643 144.58067322 C12.49278338 144.59451528 15.52800189 144.59361643 18.56347656 144.59130859 C20.68425581 144.5951986 22.80503429 144.5995339 24.92581177 144.60429382 C29.36576872 144.61174455 33.80564613 144.61147314 38.24560547 144.60620117 C43.9202821 144.60040944 49.59463204 144.61733615 55.26925468 144.64054585 C59.64801927 144.65531617 64.02670579 144.65615036 68.40549088 144.65303612 C70.49695609 144.65354771 72.58842587 144.65875492 74.67986679 144.66884804 C77.61117197 144.68125849 80.54184854 144.674393 83.47314453 144.6628418 C84.32746063 144.67048553 85.18177673 144.67812927 86.0619812 144.68600464 C92.17945651 144.63303043 98.84876604 143.96695653 103.79087639 140.01561451 C109.32042327 133.94182892 109.493298 126.57015543 109.47094727 118.82617188 C109.4760582 117.90326355 109.48116913 116.98035522 109.48643494 116.02947998 C109.500277 112.99403303 109.49937815 109.95881451 109.49707031 106.92333984 C109.50096032 104.80256059 109.50529562 102.68178212 109.51005554 100.56100464 C109.51750627 96.12104769 109.51723486 91.68117027 109.51196289 87.24121094 C109.50617116 81.56653431 109.52309787 75.89218437 109.54630756 70.21756172 C109.56107789 65.83879713 109.56191208 61.46011062 109.55879784 57.08132553 C109.55930943 54.98986031 109.56451663 52.89839054 109.57460976 50.80694962 C109.58702021 47.87564444 109.58015471 44.94496786 109.56860352 42.01367188 C109.57624725 41.15935577 109.58389099 40.30503967 109.59176636 39.42483521 C109.53879215 33.30735989 108.87271825 26.63805036 104.92137623 21.69594002 C98.84759064 16.16639313 91.47591715 15.99351841 83.73193359 16.01586914 C82.80902527 16.01075821 81.88611694 16.00564728 80.9352417 16.00038147 C77.89979474 15.98653941 74.86457623 15.98743826 71.82910156 15.98974609 C69.70832231 15.98585609 67.58754383 15.98152079 65.46676636 15.97676086 C61.02680941 15.96931013 56.58693199 15.96958154 52.14697266 15.97485352 C46.47229602 15.98064525 40.79794609 15.96371854 35.12332344 15.94050884 C30.74455885 15.92573852 26.36587234 15.92490432 21.98708725 15.92801857 C19.89562203 15.92750698 17.80415226 15.92229977 15.71271133 15.91220665 C12.78140616 15.8997962 9.85072958 15.90666169 6.91943359 15.91821289 C5.63795944 15.90674728 5.63795944 15.90674728 4.33059692 15.89505005 C-2.46907473 15.95393173 -9.93087628 16.75674155 -14.74121094 22.04052734 Z " fill="#050505" transform="translate(273.8037109375,31.70947265625)"/>
<path d="M0 0 C0.85207031 0.48339844 1.70414063 0.96679688 2.58203125 1.46484375 C22.60759293 13.91316588 35.36357223 34.4224447 41 57 C44.4637853 72.03161172 43.5381977 90.62233367 38 105 C37.61457031 106.05832031 37.22914063 107.11664063 36.83203125 108.20703125 C28.07414524 130.73945643 11.23638586 147.9371987 -10.8125 157.75 C-12.86221669 158.53426255 -14.92577061 159.28307693 -17 160 C-18.12019531 160.39316406 -19.24039063 160.78632813 -20.39453125 161.19140625 C-42.13619427 167.72528823 -66.39278978 165.59068293 -86.46191406 155.13256836 C-108.5666505 143.08022397 -123.84051442 124.84103006 -131.4375 100.875 C-136.39081142 83.77163771 -135.87913696 63.78648316 -130 47 C-129.649375 45.96359375 -129.29875 44.9271875 -128.9375 43.859375 C-120.13632145 20.51180412 -102.39066308 3.98573592 -79.98681641 -6.15869141 C-53.56909422 -17.34515868 -24.44358358 -13.8676456 0 0 Z M-98.125 26.75 C-112.32583286 41.34713518 -117.43345621 59.23628663 -117.43823242 79.11010742 C-117.27462627 88.14880669 -115.4723597 95.70278691 -112 104 C-111.61585937 104.93972656 -111.23171875 105.87945312 -110.8359375 106.84765625 C-107.88661539 113.33817124 -103.69449039 118.67503359 -99 124 C-98.32066406 124.77472656 -97.64132813 125.54945313 -96.94140625 126.34765625 C-83.8346853 140.36824031 -65.94148602 146.95062075 -47.07128906 147.95703125 C-27.84589313 148.35586077 -10.06978796 140.62226502 3.83886719 127.74707031 C14.29545118 117.55638801 20.06580099 105.89633385 24 92 C24.17885742 91.37464355 24.35771484 90.74928711 24.54199219 90.10498047 C28.37016361 72.51090051 24.10799171 53.17268811 15 38 C4.0206736 21.61018824 -11.81311699 9.87924569 -31.11572266 5.52246094 C-56.37067084 0.70037513 -79.76530196 9.25004613 -98.125 26.75 Z " fill="#111111" transform="translate(149,244)"/>
<path d="M0 0 C0.99 0.33 1.98 0.66 3 1 C-1.62 5.62 -6.24 10.24 -11 15 C-11.33 14.01 -11.66 13.02 -12 12 C-8.04 8.04 -4.08 4.08 0 0 Z M-66 66 C-65.01 66.33 -64.02 66.66 -63 67 C-64.32 67.99 -65.64 68.98 -67 70 C-66.67 68.68 -66.34 67.36 -66 66 Z " fill="#303030" transform="translate(298,232)"/>
<path d="M0 0 C0.66 0.33 1.32 0.66 2 1 C-3.94 6.94 -9.88 12.88 -16 19 C-16 14.76641181 -13.57639709 12.97541337 -10.8125 10.0625 C-10.08836914 9.27456055 -10.08836914 9.27456055 -9.34960938 8.47070312 C-6.43336087 5.34307553 -3.41697361 2.59240228 0 0 Z " fill="#686868" transform="translate(49,249)"/>
<path d="M0 0 C0.66 0.33 1.32 0.66 2 1 C-0.97 3.97 -3.94 6.94 -7 10 C-7.66 9.67 -8.32 9.34 -9 9 C-6.21000549 5.51250686 -3.74764169 2.49842779 0 0 Z " fill="#737373" transform="translate(253,36)"/>
</svg>
