<?xml version="1.0" encoding="UTF-8"?>
<svg version="1.1" xmlns="http://www.w3.org/2000/svg" width="512" height="512">
<path d="M0 0 C3.44364973 1.87714412 6.43919381 4.18323326 9.5 6.625 C10.30308594 7.24246094 11.10617188 7.85992187 11.93359375 8.49609375 C18.20741222 13.32601883 18.20741222 13.32601883 21.19921875 15.87011719 C21.88628906 16.43633789 22.57335937 17.00255859 23.28125 17.5859375 C23.88001953 18.09946777 24.47878906 18.61299805 25.09570312 19.14208984 C27.05164416 20.26403056 27.05164416 20.26403056 29.46899414 19.34570312 C31.94559454 18.02892668 34.02484043 16.63102914 36.21484375 14.8828125 C36.98376953 14.27566406 37.75269531 13.66851562 38.54492188 13.04296875 C39.33447266 12.41003906 40.12402344 11.77710937 40.9375 11.125 C43.94475474 8.73202453 46.96621701 6.35921158 50 4 C51.01191406 3.19304688 52.02382812 2.38609375 53.06640625 1.5546875 C56.86127687 -0.45644234 59.86820844 -1.05345769 64 0 C67.45355585 1.85790697 70.4400411 4.18390919 73.5 6.625 C74.30308594 7.24246094 75.10617188 7.85992187 75.93359375 8.49609375 C82.20741222 13.32601883 82.20741222 13.32601883 85.19921875 15.87011719 C85.88628906 16.43633789 86.57335937 17.00255859 87.28125 17.5859375 C87.88001953 18.09946777 88.47878906 18.61299805 89.09570312 19.14208984 C91.05164416 20.26403056 91.05164416 20.26403056 93.46899414 19.34570312 C95.94559454 18.02892668 98.02484043 16.63102914 100.21484375 14.8828125 C100.98376953 14.27566406 101.75269531 13.66851562 102.54492188 13.04296875 C103.33447266 12.41003906 104.12402344 11.77710937 104.9375 11.125 C107.94475474 8.73202453 110.96621701 6.35921158 114 4 C115.01191406 3.19304688 116.02382813 2.38609375 117.06640625 1.5546875 C120.86127687 -0.45644234 123.86820844 -1.05345769 128 0 C131.45355585 1.85790697 134.4400411 4.18390919 137.5 6.625 C138.30308594 7.24246094 139.10617187 7.85992187 139.93359375 8.49609375 C146.20741222 13.32601883 146.20741222 13.32601883 149.19921875 15.87011719 C149.88628906 16.43633789 150.57335937 17.00255859 151.28125 17.5859375 C151.88001953 18.09946777 152.47878906 18.61299805 153.09570312 19.14208984 C155.05164416 20.26403056 155.05164416 20.26403056 157.46899414 19.34570312 C159.94559454 18.02892668 162.02484043 16.63102914 164.21484375 14.8828125 C164.98376953 14.27566406 165.75269531 13.66851562 166.54492188 13.04296875 C167.33447266 12.41003906 168.12402344 11.77710937 168.9375 11.125 C171.94475474 8.73202453 174.96621701 6.35921158 178 4 C179.01191406 3.19304688 180.02382813 2.38609375 181.06640625 1.5546875 C184.76641499 -0.40616933 187.9251295 -0.51270308 192 0 C195.34814453 1.41772461 195.34814453 1.41772461 198.6328125 3.40234375 C199.23197479 3.75833145 199.83113708 4.11431915 200.44845581 4.48109436 C202.3508906 5.61710982 204.23756837 6.77676835 206.125 7.9375 C207.3662548 8.68189601 208.60843796 9.42474627 209.8515625 10.16601562 C213.59107927 12.40686922 217.30067316 14.69350279 221 17 C221.66012085 17.41098938 222.3202417 17.82197876 223.00036621 18.24542236 C224.96043157 19.47050776 226.91486259 20.70402985 228.8671875 21.94140625 C229.46902863 22.31877426 230.07086975 22.69614227 230.69094849 23.08494568 C234.88365647 25.76731294 234.88365647 25.76731294 236 28 C236.11106292 29.76556079 236.15920218 31.53523821 236.17700195 33.30419922 C236.18983719 34.4122995 236.20267242 35.52039978 236.21589661 36.66207886 C236.22697701 38.46517014 236.22697701 38.46517014 236.23828125 40.3046875 C236.246353 41.53534943 236.25442474 42.76601135 236.26274109 44.03396606 C236.27659032 46.64160753 236.2873087 49.24926719 236.29516602 51.85693359 C236.30403561 54.53229481 236.32492948 57.20713822 236.35668945 59.88232422 C236.3991954 63.73160586 236.41551205 67.58020082 236.42578125 71.4296875 C236.44328934 72.62769989 236.46079742 73.82571228 236.47883606 75.06002808 C236.47444771 76.73163498 236.47444771 76.73163498 236.4699707 78.43701172 C236.47877007 79.90689041 236.47877007 79.90689041 236.48774719 81.40646362 C235.86286896 84.72917762 234.59865803 85.90989476 232 88 C230 88.53125 230 88.53125 228 88.5 C227.01 88.51546875 227.01 88.51546875 226 88.53125 C222.88072537 87.70269268 221.88669678 86.64884756 220 84 C219.68906206 80.61324607 220.08815138 77.30307862 220.41015625 73.92578125 C222.94726304 52.44933346 222.94726304 52.44933346 216.17236328 33.12304688 C209.093324 26.56826001 196.73945061 20 187 20 C185.06405449 21.19892616 185.06405449 21.19892616 183.0859375 22.8515625 C182.32410156 23.45613281 181.56226563 24.06070313 180.77734375 24.68359375 C179.98457031 25.32425781 179.19179688 25.96492188 178.375 26.625 C161.22512189 40.38511996 161.22512189 40.38511996 155 41 C148.46370449 39.19242568 142.93080064 34.09509251 137.75 29.9375 C136.18239727 28.69648117 134.61469251 27.45559122 133.046875 26.21484375 C132.36463867 25.66948975 131.68240234 25.12413574 130.97949219 24.56225586 C129.01007324 23.00795001 127.01322494 21.49697735 125 20 C121.95101603 21.41987421 119.35629733 23.10551761 116.6640625 25.1171875 C115.43816406 26.02791016 115.43816406 26.02791016 114.1875 26.95703125 C113.341875 27.58996094 112.49625 28.22289063 111.625 28.875 C95.375 41 95.375 41 91 41 C84.48784381 38.16955303 79.26758373 34.36536094 73.75 29.9375 C72.18239727 28.69648117 70.61469251 27.45559122 69.046875 26.21484375 C68.02352051 25.39681274 68.02352051 25.39681274 66.97949219 24.56225586 C65.01007324 23.00795001 63.01322494 21.49697735 61 20 C57.95101603 21.41987421 55.35629733 23.10551761 52.6640625 25.1171875 C51.84679687 25.72433594 51.02953125 26.33148438 50.1875 26.95703125 C48.9190625 27.90642578 48.9190625 27.90642578 47.625 28.875 C31.375 41 31.375 41 27 41 C21.1003031 38.73983908 16.35148664 35.15729628 11.5625 31.125 C6.26064433 26.70018556 0.80741106 22.74172119 -5 19 C-5.83772949 19.50974365 -6.67545898 20.0194873 -7.53857422 20.54467773 C-10.64291052 22.43332811 -13.74787313 24.32094666 -16.85302734 26.20825195 C-18.19759999 27.02567809 -19.54200196 27.84338502 -20.88623047 28.66137695 C-22.81693581 29.83618622 -24.74825 31.00998868 -26.6796875 32.18359375 C-27.28183075 32.55028671 -27.883974 32.91697968 -28.50436401 33.29478455 C-32.77225659 35.88612829 -32.77225659 35.88612829 -35 37 C-35.00059709 37.55498114 -35.00119418 38.10996228 -35.00180936 38.68176103 C-35.0376855 71.55779825 -35.09429696 104.4337264 -35.17792095 137.30967577 C-35.18793868 141.2551155 -35.19778277 145.20055566 -35.20751953 149.14599609 C-35.2094609 149.93147854 -35.21140228 150.71696098 -35.21340248 151.52624592 C-35.24444293 164.25289676 -35.26140883 176.97952955 -35.27319422 189.70621112 C-35.28559521 202.76018526 -35.31307273 215.81406454 -35.35461307 228.86797881 C-35.37977874 236.92617004 -35.39311505 244.984204 -35.39142957 253.04243508 C-35.39139636 259.21638852 -35.41231594 265.39010738 -35.44116783 271.56398964 C-35.44971256 274.10046075 -35.45138604 276.63696539 -35.44580269 279.17344475 C-35.43921021 282.62748039 -35.45697031 286.08054689 -35.48101807 289.53448486 C-35.46937744 291.05198692 -35.46937744 291.05198692 -35.45750165 292.60014558 C-35.54136339 299.36981551 -35.54136339 299.36981551 -37.90743637 302.62089157 C-40.1647851 304.10860197 -41.31898692 304.54189083 -44 304.5 C-44.66 304.5103125 -45.32 304.520625 -46 304.53125 C-49.13485556 303.69855399 -50.07894853 302.65936478 -52 300 C-52.61948693 296.41697565 -52.54332358 292.85477869 -52.5146637 289.22645569 C-52.52160922 288.11583958 -52.52855475 287.00522346 -52.53571075 285.86095232 C-52.55406007 282.12593081 -52.54369392 278.39153878 -52.53344727 274.65649414 C-52.54050173 271.98422765 -52.54910736 269.31200645 -52.55955505 266.63975525 C-52.58121508 260.12673374 -52.58106305 253.61388682 -52.57292951 247.10084111 C-52.5666335 241.80776949 -52.56776286 236.51474885 -52.57420158 231.22167778 C-52.57555407 230.09230876 -52.57555407 230.09230876 -52.57693387 228.9401242 C-52.57878505 227.41065497 -52.58064761 225.88118576 -52.58252143 224.35171657 C-52.59910699 210.00370975 -52.59037442 195.65580121 -52.57353585 181.30780029 C-52.55883943 168.17783107 -52.57346504 155.04809071 -52.60230602 141.91815097 C-52.63169096 128.44031729 -52.64267487 114.96258926 -52.63312382 101.48472494 C-52.63210125 99.96052931 -52.63110664 98.43633365 -52.6301403 96.91213799 C-52.62966391 96.1621835 -52.62918752 95.41222902 -52.6286967 94.63954865 C-52.6265313 89.35288517 -52.63634334 84.06632157 -52.65091133 78.77968025 C-52.66841764 72.33677602 -52.66834216 65.89416356 -52.64555968 59.45127089 C-52.63440128 56.16340763 -52.63398486 52.87616599 -52.64986038 49.58830643 C-52.66570687 46.02521804 -52.650917 42.46354836 -52.62818909 38.90052795 C-52.64002482 37.8594827 -52.65186054 36.81843745 -52.66405493 35.74584538 C-52.57299692 28.74555633 -52.57299692 28.74555633 -49.65267849 24.94577694 C-46.68813447 22.77124225 -43.70704313 20.83926486 -40.51953125 19.00390625 C-39.90663742 18.64787827 -39.29374359 18.29185028 -38.66227722 17.92503357 C-36.71651614 16.79679398 -34.76479982 15.6793791 -32.8125 14.5625 C-30.88540032 13.45012488 -28.95958 12.33556729 -27.03414917 11.2203064 C-25.77980793 10.49582755 -24.52356963 9.77462281 -23.26541138 9.05679321 C-19.61902985 6.97135166 -16.09213389 4.7578487 -12.57421875 2.46484375 C-8.29889165 -0.06342423 -4.89835203 -1.50591228 0 0 Z " fill="#000000" transform="translate(164,56)"/>
<path d="M0 0 C0.99 -0.01546875 0.99 -0.01546875 2 -0.03125 C5.12049539 0.79763159 6.08163736 1.86345082 8 4.5 C8.61711593 7.98218707 8.54339208 11.44135294 8.5146637 14.96983337 C8.52160922 16.04778107 8.52855475 17.12572876 8.53571075 18.23634154 C8.55405731 21.860813 8.54369473 25.48463558 8.53344727 29.10913086 C8.54050183 31.70256543 8.54924489 34.29599588 8.55955505 36.88941956 C8.58121354 43.20993485 8.58106345 49.53027024 8.57292951 55.85081046 C8.56663313 60.98751339 8.5677632 66.1241638 8.57420158 71.26086617 C8.57510324 71.99157596 8.57600489 72.72228575 8.57693387 73.47513827 C8.57878505 74.95951149 8.58064761 76.4438847 8.58252143 77.92825789 C8.59910646 91.85278478 8.59037488 105.7772104 8.57353585 119.70173121 C8.55883955 132.44371146 8.57346496 145.18545589 8.60230602 157.92740577 C8.63169215 171.00747585 8.64267452 184.08743706 8.63312382 197.1675387 C8.63210125 198.64679847 8.63110664 200.12605826 8.6301403 201.60531807 C8.62966391 202.33315967 8.62918752 203.06100127 8.6286967 203.81089867 C8.62653145 208.94127009 8.63634253 214.07153856 8.65091133 219.20188713 C8.67024704 226.10729776 8.66336799 233.01226227 8.63871193 239.91765404 C8.63368888 242.45533273 8.63723221 244.99304462 8.64986038 247.53069687 C8.6657101 250.98870263 8.6509142 254.44524719 8.62818909 257.90318298 C8.64002482 258.91310065 8.65186054 259.92301831 8.66405493 260.96353954 C8.60186621 265.60492469 8.56203139 267.77325644 5.65267849 271.53524113 C2.69263231 273.72765797 -0.28694656 275.65727442 -3.48046875 277.49609375 C-4.09336258 277.85212173 -4.70625641 278.20814972 -5.33772278 278.57496643 C-7.28348386 279.70320602 -9.23520018 280.8206209 -11.1875 281.9375 C-13.11459968 283.04987512 -15.04042 284.16443271 -16.96585083 285.2796936 C-18.22019207 286.00417245 -19.47643037 286.72537719 -20.73458862 287.44320679 C-24.38097015 289.52864834 -27.90786611 291.7421513 -31.42578125 294.03515625 C-34.97424211 296.13358282 -37.80443848 297.48021951 -41.9765625 297.12207031 C-46.43357539 295.75184 -49.90311625 292.74442412 -53.5 289.875 C-54.30308594 289.25753906 -55.10617187 288.64007813 -55.93359375 288.00390625 C-62.20741222 283.17398117 -62.20741222 283.17398117 -65.19921875 280.62988281 C-65.88628906 280.06366211 -66.57335937 279.49744141 -67.28125 278.9140625 C-67.88001953 278.40053223 -68.47878906 277.88700195 -69.09570312 277.35791016 C-71.05164416 276.23596944 -71.05164416 276.23596944 -73.46899414 277.15429688 C-75.94559454 278.47107332 -78.02484043 279.86897086 -80.21484375 281.6171875 C-80.98376953 282.22433594 -81.75269531 282.83148438 -82.54492188 283.45703125 C-83.72924805 284.40642578 -83.72924805 284.40642578 -84.9375 285.375 C-87.94475474 287.76797547 -90.96621701 290.14078842 -94 292.5 C-95.01191406 293.30695313 -96.02382813 294.11390625 -97.06640625 294.9453125 C-100.86127687 296.95644234 -103.86820844 297.55345769 -108 296.5 C-111.45355585 294.64209303 -114.4400411 292.31609081 -117.5 289.875 C-118.30308594 289.25753906 -119.10617187 288.64007813 -119.93359375 288.00390625 C-126.20741222 283.17398117 -126.20741222 283.17398117 -129.19921875 280.62988281 C-129.88628906 280.06366211 -130.57335937 279.49744141 -131.28125 278.9140625 C-131.88001953 278.40053223 -132.47878906 277.88700195 -133.09570312 277.35791016 C-135.05164416 276.23596944 -135.05164416 276.23596944 -137.46899414 277.15429688 C-139.94559454 278.47107332 -142.02484043 279.86897086 -144.21484375 281.6171875 C-144.98376953 282.22433594 -145.75269531 282.83148438 -146.54492188 283.45703125 C-147.72924805 284.40642578 -147.72924805 284.40642578 -148.9375 285.375 C-151.94475474 287.76797547 -154.96621701 290.14078842 -158 292.5 C-159.01191406 293.30695313 -160.02382812 294.11390625 -161.06640625 294.9453125 C-164.86127687 296.95644234 -167.86820844 297.55345769 -172 296.5 C-175.45355585 294.64209303 -178.4400411 292.31609081 -181.5 289.875 C-182.30308594 289.25753906 -183.10617188 288.64007813 -183.93359375 288.00390625 C-190.20741222 283.17398117 -190.20741222 283.17398117 -193.19921875 280.62988281 C-193.88628906 280.06366211 -194.57335937 279.49744141 -195.28125 278.9140625 C-195.88001953 278.40053223 -196.47878906 277.88700195 -197.09570312 277.35791016 C-199.05164416 276.23596944 -199.05164416 276.23596944 -201.46899414 277.15429688 C-203.94559454 278.47107332 -206.02484043 279.86897086 -208.21484375 281.6171875 C-208.98376953 282.22433594 -209.75269531 282.83148438 -210.54492188 283.45703125 C-211.72924805 284.40642578 -211.72924805 284.40642578 -212.9375 285.375 C-215.94475474 287.76797547 -218.96621701 290.14078842 -222 292.5 C-223.01191406 293.30695313 -224.02382812 294.11390625 -225.06640625 294.9453125 C-228.76641499 296.90616933 -231.9251295 297.01270308 -236 296.5 C-239.34814453 295.08227539 -239.34814453 295.08227539 -242.6328125 293.09765625 C-243.23197479 292.74166855 -243.83113708 292.38568085 -244.44845581 292.01890564 C-246.3508906 290.88289018 -248.23756837 289.72323165 -250.125 288.5625 C-251.3662548 287.81810399 -252.60843796 287.07525373 -253.8515625 286.33398438 C-257.59107927 284.09313078 -261.30067316 281.80649721 -265 279.5 C-265.66012085 279.08901062 -266.3202417 278.67802124 -267.00036621 278.25457764 C-268.96043157 277.02949224 -270.91486259 275.79597015 -272.8671875 274.55859375 C-273.46902863 274.18122574 -274.07086975 273.80385773 -274.69094849 273.41505432 C-278.88365647 270.73268706 -278.88365647 270.73268706 -280 268.5 C-280.10991241 266.97955064 -280.15905711 265.4544871 -280.17700195 263.93017578 C-280.18983719 262.98224152 -280.20267242 262.03430725 -280.21589661 261.05764771 C-280.22328354 260.03057709 -280.23067047 259.00350647 -280.23828125 257.9453125 C-280.246353 256.89221893 -280.25442474 255.83912537 -280.26274109 254.75411987 C-280.27658695 252.52310842 -280.28730685 250.29207573 -280.29516602 248.06103516 C-280.31239531 244.64575222 -280.35627966 241.23143299 -280.40039062 237.81640625 C-280.41051586 235.6510488 -280.41903249 233.48568311 -280.42578125 231.3203125 C-280.44328934 230.29729034 -280.46079742 229.27426819 -280.47883606 228.22024536 C-280.45711471 221.13534778 -280.45711471 221.13534778 -278.09838867 217.85693359 C-275.8400821 216.39658828 -274.66822274 215.95830902 -272 216 C-271.34 215.9896875 -270.68 215.979375 -270 215.96875 C-266.95845047 216.77666159 -265.87805254 217.97436024 -264 220.5 C-263.93355619 223.41879524 -264.07464922 225.95116229 -264.41015625 228.82421875 C-266.41964932 245.69691241 -266.41964932 245.69691241 -261.72247314 261.35571289 C-254.61254772 268.88864486 -243.71823987 273.43614098 -234 276.5 C-230.53237233 276.5 -229.97523998 275.9848268 -227.33984375 273.90234375 C-226.27975098 273.07524902 -226.27975098 273.07524902 -225.19824219 272.23144531 C-224.45219727 271.63944336 -223.70615234 271.04744141 -222.9375 270.4375 C-221.40072064 269.24222716 -219.8629646 268.04820895 -218.32421875 266.85546875 C-217.58091309 266.27716309 -216.83760742 265.69885742 -216.07177734 265.10302734 C-213.49448723 263.10886202 -210.89252001 261.15693199 -208.25 259.25 C-207.53328125 258.72921875 -206.8165625 258.2084375 -206.078125 257.671875 C-203.49538707 256.21544384 -201.99486248 255.5855675 -199 255.5 C-192.41875034 257.67954009 -187.07820602 262.28661467 -181.75 266.5625 C-180.18239727 267.80351883 -178.61469251 269.04440878 -177.046875 270.28515625 C-176.02352051 271.10318726 -176.02352051 271.10318726 -174.97949219 271.93774414 C-173.01007324 273.49204999 -171.01322494 275.00302265 -169 276.5 C-165.95101603 275.08012579 -163.35629733 273.39448239 -160.6640625 271.3828125 C-159.84679687 270.77566406 -159.02953125 270.16851562 -158.1875 269.54296875 C-156.9190625 268.59357422 -156.9190625 268.59357422 -155.625 267.625 C-139.375 255.5 -139.375 255.5 -135 255.5 C-128.48784381 258.33044697 -123.26758373 262.13463906 -117.75 266.5625 C-116.18239727 267.80351883 -114.61469251 269.04440878 -113.046875 270.28515625 C-112.36463867 270.83051025 -111.68240234 271.37586426 -110.97949219 271.93774414 C-109.01007324 273.49204999 -107.01322494 275.00302265 -105 276.5 C-101.95101603 275.08012579 -99.35629733 273.39448239 -96.6640625 271.3828125 C-95.84679687 270.77566406 -95.02953125 270.16851562 -94.1875 269.54296875 C-93.341875 268.91003906 -92.49625 268.27710938 -91.625 267.625 C-75.375 255.5 -75.375 255.5 -71 255.5 C-64.52332145 258.3159472 -59.3527821 262.08451965 -53.875 266.5 C-52.33226677 267.73109597 -50.78802803 268.96030803 -49.2421875 270.1875 C-48.5704248 270.72761719 -47.89866211 271.26773437 -47.20654297 271.82421875 C-44.54969067 273.84199195 -41.78940736 275.6712723 -39 277.5 C-38.16227051 276.99025635 -37.32454102 276.4805127 -36.46142578 275.95532227 C-33.35708948 274.06667189 -30.25212687 272.17905334 -27.14697266 270.29174805 C-25.80240001 269.47432191 -24.45799804 268.65661498 -23.11376953 267.83862305 C-21.18306419 266.66381378 -19.25175 265.49001132 -17.3203125 264.31640625 C-16.71816925 263.94971329 -16.116026 263.58302032 -15.49563599 263.20521545 C-11.22774341 260.61387171 -11.22774341 260.61387171 -9 259.5 C-8.99780016 257.53422815 -8.99780016 257.53422815 -8.99555588 255.52874374 C-8.95987072 224.43502316 -8.903654 193.34141465 -8.82207905 162.24778239 C-8.81206133 158.42251287 -8.80221724 154.59724291 -8.79248047 150.77197266 C-8.78956841 149.62963637 -8.78956841 149.62963637 -8.78659752 148.46422258 C-8.75555793 136.12556346 -8.73859141 123.78692296 -8.72680578 111.44823214 C-8.71440435 98.79202075 -8.68692583 86.13590719 -8.64538693 73.47975755 C-8.62022252 65.66724082 -8.60688485 57.85488628 -8.60857043 50.04232845 C-8.60860364 44.05637718 -8.58768233 38.07068833 -8.55883217 32.08479881 C-8.55028819 29.62573088 -8.54861347 27.16662839 -8.55419731 24.70755196 C-8.56079094 21.35860277 -8.5430271 18.0106527 -8.51898193 14.6618042 C-8.53062256 13.19099352 -8.53062256 13.19099352 -8.54249835 11.6904695 C-8.45864537 5.1256323 -8.45864537 5.1256323 -6.09256363 1.89809036 C-3.83352596 0.38877482 -2.69302908 -0.04207858 0 0 Z " fill="#000000" transform="translate(392,159.5)"/>
<path d="M0 0 C0.81730591 -0.00623996 1.63461182 -0.01247993 2.47668457 -0.01890898 C5.21912364 -0.03488145 7.96067912 -0.02221833 10.703125 -0.00964355 C12.66764851 -0.01506279 14.63216796 -0.02218433 16.59667969 -0.03088379 C21.93548516 -0.04914366 27.27398199 -0.04203856 32.61279297 -0.02936745 C38.19499556 -0.01925361 43.77717139 -0.02862863 49.359375 -0.03491211 C58.73442336 -0.04219322 68.10934576 -0.03258861 77.484375 -0.0135498 C88.32944839 0.00821976 99.17422101 0.00116873 110.01928711 -0.02085543 C119.32383808 -0.03899618 128.6282984 -0.04157422 137.93286133 -0.03110075 C143.49305147 -0.02485855 149.05310015 -0.02405019 154.61328125 -0.0372467 C159.84019072 -0.04878526 165.06671169 -0.04081586 170.2935791 -0.01766968 C172.21406407 -0.01237193 174.13458162 -0.01391451 176.05505371 -0.02272034 C178.67256338 -0.03361744 181.2888206 -0.01998354 183.90625 0 C184.67005981 -0.00892289 185.43386963 -0.01784577 186.2208252 -0.02703905 C189.73078308 0.02510216 191.60747743 0.24099659 194.42430878 2.41638947 C196.10648111 4.71773822 196.45772427 5.75780088 196.47070312 8.57043457 C196.48331177 9.35805176 196.49592041 10.14566895 196.50891113 10.95715332 C196.50081421 11.79891113 196.49271729 12.64066895 196.484375 13.50793457 C196.4882019 14.38062988 196.49202881 15.2533252 196.49597168 16.15246582 C196.4986899 17.99492549 196.49133494 19.83742381 196.47460938 21.67980957 C196.45319748 24.49839391 196.47441301 27.31442942 196.5 30.13293457 C196.49735671 31.92460686 196.49223169 33.71627756 196.484375 35.50793457 C196.49247192 36.34969238 196.50056885 37.1914502 196.50891113 38.05871582 C196.48999817 39.2401416 196.48999817 39.2401416 196.47070312 40.44543457 C196.46752075 41.13508301 196.46433838 41.82473145 196.46105957 42.53527832 C195.68707881 45.54117333 194.40591954 46.61368138 191.953125 48.50793457 C189.13996946 48.90078958 186.71824237 49.04871906 183.90625 49.01586914 C183.08894409 49.0221091 182.27163818 49.02834907 181.42956543 49.03477812 C178.68712636 49.05075059 175.94557088 49.03808747 173.203125 49.0255127 C171.23860149 49.03093193 169.27408204 49.03805347 167.30957031 49.04675293 C161.97076484 49.0650128 156.63226801 49.0579077 151.29345703 49.04523659 C145.71125444 49.03512275 140.12907861 49.04449777 134.546875 49.05078125 C125.17182664 49.05806236 115.79690424 49.04845775 106.421875 49.02941895 C95.57680161 49.00764938 84.73202899 49.01470041 73.88696289 49.03672457 C64.58241192 49.05486532 55.2779516 49.05744336 45.97338867 49.04696989 C40.41319853 49.04072769 34.85314985 49.03991933 29.29296875 49.05311584 C24.06605928 49.0646544 18.83953831 49.056685 13.6126709 49.03353882 C11.69218593 49.02824107 9.77166838 49.02978365 7.85119629 49.03858948 C5.23368662 49.04948658 2.6174294 49.03585268 0 49.01586914 C-0.76380981 49.02479203 -1.52761963 49.03371491 -2.3145752 49.04290819 C-5.82453308 48.99076698 -7.70122743 48.77487255 -10.51805878 46.59947968 C-12.20023111 44.29813093 -12.55147427 43.25806826 -12.56445312 40.44543457 C-12.57706177 39.65781738 -12.58967041 38.8702002 -12.60266113 38.05871582 C-12.59456421 37.21695801 -12.58646729 36.3752002 -12.578125 35.50793457 C-12.5819519 34.63523926 -12.58577881 33.76254395 -12.58972168 32.86340332 C-12.5924399 31.02094365 -12.58508494 29.17844533 -12.56835938 27.33605957 C-12.54694748 24.51747523 -12.56816301 21.70143972 -12.59375 18.88293457 C-12.59110671 17.09126228 -12.58598169 15.29959158 -12.578125 13.50793457 C-12.58622192 12.66617676 -12.59431885 11.82441895 -12.60266113 10.95715332 C-12.59005249 10.16953613 -12.57744385 9.38191895 -12.56445312 8.57043457 C-12.56127075 7.88078613 -12.55808838 7.1911377 -12.55480957 6.48059082 C-10.90432173 0.07062124 -5.655784 -0.06607132 0 0 Z M3.953125 16.50793457 C3.953125 21.78793457 3.953125 27.06793457 3.953125 32.50793457 C62.033125 32.50793457 120.113125 32.50793457 179.953125 32.50793457 C179.953125 27.22793457 179.953125 21.94793457 179.953125 16.50793457 C121.873125 16.50793457 63.793125 16.50793457 3.953125 16.50793457 Z " fill="#000000" transform="translate(164.046875,343.4920654296875)"/>
<path d="M0 0 C1.67865251 2.35187025 2.72311006 4.18597741 3.84375 6.78515625 C4.33252625 7.83836815 4.33252625 7.83836815 4.83117676 8.91285706 C5.91314543 11.26443698 6.95652746 13.63111306 8 16 C8.771987 17.70231869 9.54546074 19.40396383 10.3203125 21.10498047 C12.35567571 25.60363825 14.33601037 30.12414655 16.29394531 34.65698242 C17.10483151 36.52645264 17.92332897 38.39263805 18.74902344 40.25561523 C19.96344359 42.99569244 21.1558853 45.74441781 22.34375 48.49609375 C22.71238159 49.31814804 23.08101318 50.14020233 23.46081543 50.98716736 C25.7335873 56.34415635 26.85127291 61.16582394 26 67 C24.5 69.5625 24.5 69.5625 22 71 C19.21823392 71.54153233 16.74924335 71.73026776 14 71 C9.08775566 67.04804403 7.42916131 61.66804306 5 56 C-2.26 56 -9.52 56 -17 56 C-19.22028889 60.55915312 -19.22028889 60.55915312 -21.42724609 65.12475586 C-23.77777778 69.88888889 -23.77777778 69.88888889 -26 71 C-33.0521327 71.56872038 -33.0521327 71.56872038 -36.5 69.5 C-38.61753493 65.97077512 -38.57218058 62.96668899 -38 59 C-36.64622638 54.73372874 -34.87269225 50.67746888 -33.07421875 46.58203125 C-32.57082474 45.40662277 -32.06743073 44.23121429 -31.54878235 43.02018738 C-30.48515165 40.54357265 -29.41660683 38.06995377 -28.33813477 35.59985352 C-26.96058137 32.44462452 -25.59879518 29.28291512 -24.24287701 26.11833668 C-22.94178011 23.08318833 -21.63322748 20.05127417 -20.32421875 17.01953125 C-19.83660568 15.88925003 -19.34899261 14.75896881 -18.84660339 13.59443665 C-18.15622734 12.01205452 -18.15622734 12.01205452 -17.4519043 10.39770508 C-17.0499736 9.47363358 -16.64804291 8.54956207 -16.2339325 7.5974884 C-12.89700099 0.57308396 -12.89700099 0.57308396 -9.75 -1.4375 C-5.87052018 -2.23102996 -3.65405442 -1.49427225 0 0 Z M-7 30 C-7.99 32.97 -8.98 35.94 -10 39 C-7.36 39 -4.72 39 -2 39 C-2.99 36.03 -3.98 33.06 -5 30 C-5.66 30 -6.32 30 -7 30 Z " fill="#000000" transform="translate(190,129)"/>
<path d="M0 0 C1.2113562 -0.0112793 2.4227124 -0.02255859 3.67077637 -0.03417969 C5.01001216 -0.02640276 6.34924559 -0.01821011 7.68847656 -0.00964355 C9.10128501 -0.01506471 10.5140878 -0.02218734 11.92687988 -0.03088379 C15.76164099 -0.04912126 19.59597171 -0.04204814 23.43074036 -0.02936745 C27.44342206 -0.01924186 31.45606686 -0.02863189 35.46875 -0.03491211 C42.20742409 -0.04218982 48.94592284 -0.03259765 55.68457031 -0.0135498 C63.4759158 0.0082193 71.26684261 0.001168 79.05817795 -0.02085543 C85.74704955 -0.03900598 92.4357951 -0.04156948 99.12468338 -0.03110075 C103.11993523 -0.02486387 107.11499028 -0.02403537 111.11022949 -0.0372467 C114.86636457 -0.04879972 118.62195976 -0.04079024 122.3780365 -0.01766968 C123.75669966 -0.01237954 125.13540824 -0.01390167 126.51405334 -0.02272034 C128.39542013 -0.03364541 130.27688618 -0.0175175 132.15820312 0 C133.73773773 0.00226215 133.73773773 0.00226215 135.34918213 0.00457001 C138.76454036 0.6343213 139.94656087 1.82389665 142.07910156 4.50793457 C142.61035156 6.50793457 142.61035156 6.50793457 142.57910156 8.50793457 C142.59457031 9.49793457 142.59457031 9.49793457 142.61035156 10.50793457 C141.83132291 13.44074832 140.41351803 14.60317676 138.07910156 16.50793457 C135.34918213 17.01129913 135.34918213 17.01129913 132.15820312 17.01586914 C130.94684692 17.02714844 129.73549072 17.03842773 128.48742676 17.05004883 C127.14819097 17.04227191 125.80895754 17.03407925 124.46972656 17.0255127 C123.05691812 17.03093385 121.64411532 17.03805648 120.23132324 17.04675293 C116.39656213 17.0649904 112.56223141 17.05791728 108.72746277 17.04523659 C104.71478107 17.035111 100.70213627 17.04450103 96.68945312 17.05078125 C89.95077903 17.05805896 83.21228028 17.04846679 76.47363281 17.02941895 C68.68228733 17.00764984 60.89136052 17.01470114 53.10002518 17.03672457 C46.41115357 17.05487512 39.72240802 17.05743862 33.03351974 17.04696989 C29.03826789 17.04073302 25.04321285 17.03990451 21.04797363 17.05311584 C17.29183855 17.06466886 13.53624336 17.05665938 9.78016663 17.03353882 C8.40150347 17.02824868 7.02279489 17.02977081 5.64414978 17.03858948 C3.762783 17.04951455 1.88131695 17.03338664 0 17.01586914 C-1.57953461 17.01360699 -1.57953461 17.01360699 -3.190979 17.01129913 C-6.60633723 16.38154784 -7.78835774 15.19197249 -9.92089844 12.50793457 C-10.45214844 10.50793457 -10.45214844 10.50793457 -10.42089844 8.50793457 C-10.43636719 7.51793457 -10.43636719 7.51793457 -10.45214844 6.50793457 C-9.00736523 1.06875074 -5.10995004 0.00731829 0 0 Z " fill="#000000" transform="translate(217.9208984375,271.4920654296875)"/>
<path d="M0 0 C1.07672974 -0.0112793 2.15345947 -0.02255859 3.26281738 -0.03417969 C5.02716125 -0.0220343 5.02716125 -0.0220343 6.82714844 -0.00964355 C8.69107239 -0.02015747 8.69107239 -0.02015747 10.59265137 -0.03088379 C13.9978753 -0.04547416 17.40212726 -0.04205291 20.80729675 -0.02936745 C24.37154442 -0.01923659 27.9357507 -0.02863335 31.5 -0.03491211 C37.48542738 -0.04218831 43.47065729 -0.0326017 49.45605469 -0.0135498 C56.37491301 0.00821911 63.29329986 0.0011677 70.21214676 -0.02085543 C76.15368306 -0.03901038 82.09507746 -0.04156736 88.03663254 -0.03110075 C91.58476235 -0.02486625 95.13267058 -0.02402872 98.68078613 -0.0372467 C102.63600985 -0.05095221 106.59070592 -0.03195378 110.54589844 -0.00964355 C111.72212769 -0.01774048 112.89835693 -0.0258374 114.11022949 -0.03417969 C115.7253241 -0.01726074 115.7253241 -0.01726074 117.37304688 0 C118.30808044 0.0015081 119.24311401 0.0030162 120.20648193 0.00457001 C123.43531902 0.65991475 124.637185 1.9861788 126.68652344 4.50793457 C127.21777344 6.50793457 127.21777344 6.50793457 127.18652344 8.50793457 C127.20199219 9.49793457 127.20199219 9.49793457 127.21777344 10.50793457 C126.44425138 13.4200176 124.98577122 14.60089121 122.68652344 16.50793457 C120.20648193 17.01129913 120.20648193 17.01129913 117.37304688 17.01586914 C116.29631714 17.02714844 115.2195874 17.03842773 114.11022949 17.05004883 C112.34588562 17.03790344 112.34588562 17.03790344 110.54589844 17.0255127 C108.68197449 17.03602661 108.68197449 17.03602661 106.78039551 17.04675293 C103.37517158 17.0613433 99.97091962 17.05792205 96.56575012 17.04523659 C93.00150246 17.03510573 89.43729618 17.04450249 85.87304688 17.05078125 C79.8876195 17.05805745 73.90238958 17.04847084 67.91699219 17.02941895 C60.99813386 17.00765003 54.07974702 17.01470144 47.16090012 17.03672457 C41.21936382 17.05487952 35.27796941 17.0574365 29.33641434 17.04696989 C25.78828453 17.04073539 22.2403763 17.03989786 18.69226074 17.05311584 C14.73703703 17.06682135 10.78234095 17.04782292 6.82714844 17.0255127 C5.65091919 17.03360962 4.47468994 17.04170654 3.26281738 17.05004883 C1.64772278 17.03312988 1.64772278 17.03312988 0 17.01586914 C-0.93503357 17.01436104 -1.87006714 17.01285294 -2.83343506 17.01129913 C-6.06227215 16.35595439 -7.26413812 15.02969034 -9.31347656 12.50793457 C-9.84472656 10.50793457 -9.84472656 10.50793457 -9.81347656 8.50793457 C-9.82894531 7.51793457 -9.82894531 7.51793457 -9.84472656 6.50793457 C-8.49154751 1.41361344 -4.87144101 0.00785708 0 0 Z " fill="#000000" transform="translate(161.3134765625,239.4920654296875)"/>
<path d="M0 0 C1.08655884 -0.00700928 2.17311768 -0.01401855 3.29260254 -0.02124023 C6.88803585 -0.03886056 10.48268354 -0.02718245 14.078125 -0.01367188 C16.57389477 -0.01636561 19.06966352 -0.02024703 21.56542969 -0.02526855 C26.79760775 -0.03116908 32.02958108 -0.02296334 37.26171875 -0.00390625 C43.30809512 0.01786244 49.35393196 0.01081088 55.40029526 -0.01121187 C61.22025466 -0.03156034 67.0400092 -0.02939482 72.85998535 -0.01768494 C75.33516515 -0.01501343 77.81035869 -0.01830224 80.28552246 -0.02760315 C83.74280459 -0.03774296 87.19904557 -0.02230206 90.65625 0 C91.68286743 -0.00809692 92.70948486 -0.01619385 93.76721191 -0.02453613 C100.6940559 0.05839525 100.6940559 0.05839525 103.96191406 2.42492676 C105.43490798 4.68113965 105.86988874 5.84469852 105.828125 8.51757812 C105.84359375 9.50757813 105.84359375 9.50757813 105.859375 10.51757812 C105.02797664 13.64754841 103.97968298 14.59736152 101.328125 16.51757812 C97.77817743 17.13424766 94.25157639 17.06351256 90.65625 17.03515625 C89.56969116 17.04216553 88.48313232 17.0491748 87.36364746 17.05639648 C83.76821415 17.07401681 80.17356646 17.0623387 76.578125 17.04882812 C74.08235523 17.05152186 71.58658648 17.05540328 69.09082031 17.0604248 C63.85864225 17.06632533 58.62666892 17.05811959 53.39453125 17.0390625 C47.34815488 17.01729381 41.30231804 17.02434537 35.25595474 17.04636812 C29.43599534 17.06671659 23.6162408 17.06455107 17.79626465 17.05284119 C15.32108485 17.05016968 12.84589131 17.05345849 10.37072754 17.0627594 C6.91344541 17.07289921 3.45720443 17.05745831 0 17.03515625 C-1.53992615 17.04730164 -1.53992615 17.04730164 -3.11096191 17.05969238 C-10.0378059 16.976761 -10.0378059 16.976761 -13.30566406 14.61022949 C-14.77865798 12.3540166 -15.21363874 11.19045773 -15.171875 8.51757812 C-15.18734375 7.52757812 -15.18734375 7.52757812 -15.203125 6.51757812 C-13.20246348 -1.01432405 -6.36010951 -0.05016214 0 0 Z " fill="#000000" transform="translate(254.671875,303.482421875)"/>
<path d="M0 0 C1.08655884 -0.00700928 2.17311768 -0.01401855 3.29260254 -0.02124023 C6.88803585 -0.03886056 10.48268354 -0.02718245 14.078125 -0.01367188 C16.57389477 -0.01636561 19.06966352 -0.02024703 21.56542969 -0.02526855 C26.79760775 -0.03116908 32.02958108 -0.02296334 37.26171875 -0.00390625 C43.30809512 0.01786244 49.35393196 0.01081088 55.40029526 -0.01121187 C61.22025466 -0.03156034 67.0400092 -0.02939482 72.85998535 -0.01768494 C75.33516515 -0.01501343 77.81035869 -0.01830224 80.28552246 -0.02760315 C83.74280459 -0.03774296 87.19904557 -0.02230206 90.65625 0 C91.68286743 -0.00809692 92.70948486 -0.01619385 93.76721191 -0.02453613 C100.6940559 0.05839525 100.6940559 0.05839525 103.96191406 2.42492676 C105.43490798 4.68113965 105.86988874 5.84469852 105.828125 8.51757812 C105.84359375 9.50757813 105.84359375 9.50757813 105.859375 10.51757812 C105.02797664 13.64754841 103.97968298 14.59736152 101.328125 16.51757812 C97.77817743 17.13424766 94.25157639 17.06351256 90.65625 17.03515625 C89.56969116 17.04216553 88.48313232 17.0491748 87.36364746 17.05639648 C83.76821415 17.07401681 80.17356646 17.0623387 76.578125 17.04882812 C74.08235523 17.05152186 71.58658648 17.05540328 69.09082031 17.0604248 C63.85864225 17.06632533 58.62666892 17.05811959 53.39453125 17.0390625 C47.34815488 17.01729381 41.30231804 17.02434537 35.25595474 17.04636812 C29.43599534 17.06671659 23.6162408 17.06455107 17.79626465 17.05284119 C15.32108485 17.05016968 12.84589131 17.05345849 10.37072754 17.0627594 C6.91344541 17.07289921 3.45720443 17.05745831 0 17.03515625 C-1.53992615 17.04730164 -1.53992615 17.04730164 -3.11096191 17.05969238 C-10.0378059 16.976761 -10.0378059 16.976761 -13.30566406 14.61022949 C-14.77865798 12.3540166 -15.21363874 11.19045773 -15.171875 8.51757812 C-15.18734375 7.52757812 -15.18734375 7.52757812 -15.203125 6.51757812 C-13.20246348 -1.01432405 -6.36010951 -0.05016214 0 0 Z " fill="#000000" transform="translate(254.671875,191.482421875)"/>
<path d="M0 0 C1.08655884 -0.00700928 2.17311768 -0.01401855 3.29260254 -0.02124023 C6.88803585 -0.03886056 10.48268354 -0.02718245 14.078125 -0.01367188 C16.57389477 -0.01636561 19.06966352 -0.02024703 21.56542969 -0.02526855 C26.79760775 -0.03116908 32.02958108 -0.02296334 37.26171875 -0.00390625 C43.30809512 0.01786244 49.35393196 0.01081088 55.40029526 -0.01121187 C61.22025466 -0.03156034 67.0400092 -0.02939482 72.85998535 -0.01768494 C75.33516515 -0.01501343 77.81035869 -0.01830224 80.28552246 -0.02760315 C83.74280459 -0.03774296 87.19904557 -0.02230206 90.65625 0 C91.68286743 -0.00809692 92.70948486 -0.01619385 93.76721191 -0.02453613 C100.6940559 0.05839525 100.6940559 0.05839525 103.96191406 2.42492676 C105.43490798 4.68113965 105.86988874 5.84469852 105.828125 8.51757812 C105.84359375 9.50757813 105.84359375 9.50757813 105.859375 10.51757812 C105.02797664 13.64754841 103.97968298 14.59736152 101.328125 16.51757812 C97.77817743 17.13424766 94.25157639 17.06351256 90.65625 17.03515625 C89.56969116 17.04216553 88.48313232 17.0491748 87.36364746 17.05639648 C83.76821415 17.07401681 80.17356646 17.0623387 76.578125 17.04882812 C74.08235523 17.05152186 71.58658648 17.05540328 69.09082031 17.0604248 C63.85864225 17.06632533 58.62666892 17.05811959 53.39453125 17.0390625 C47.34815488 17.01729381 41.30231804 17.02434537 35.25595474 17.04636812 C29.43599534 17.06671659 23.6162408 17.06455107 17.79626465 17.05284119 C15.32108485 17.05016968 12.84589131 17.05345849 10.37072754 17.0627594 C6.91344541 17.07289921 3.45720443 17.05745831 0 17.03515625 C-1.53992615 17.04730164 -1.53992615 17.04730164 -3.11096191 17.05969238 C-10.0378059 16.976761 -10.0378059 16.976761 -13.30566406 14.61022949 C-14.77865798 12.3540166 -15.21363874 11.19045773 -15.171875 8.51757812 C-15.18734375 7.52757812 -15.18734375 7.52757812 -15.203125 6.51757812 C-13.20246348 -1.01432405 -6.36010951 -0.05016214 0 0 Z " fill="#000000" transform="translate(254.671875,159.482421875)"/>
<path d="M0 0 C1.08655884 -0.00700928 2.17311768 -0.01401855 3.29260254 -0.02124023 C6.88803585 -0.03886056 10.48268354 -0.02718245 14.078125 -0.01367188 C16.57389477 -0.01636561 19.06966352 -0.02024703 21.56542969 -0.02526855 C26.79760775 -0.03116908 32.02958108 -0.02296334 37.26171875 -0.00390625 C43.30809512 0.01786244 49.35393196 0.01081088 55.40029526 -0.01121187 C61.22025466 -0.03156034 67.0400092 -0.02939482 72.85998535 -0.01768494 C75.33516515 -0.01501343 77.81035869 -0.01830224 80.28552246 -0.02760315 C83.74280459 -0.03774296 87.19904557 -0.02230206 90.65625 0 C91.68286743 -0.00809692 92.70948486 -0.01619385 93.76721191 -0.02453613 C100.6940559 0.05839525 100.6940559 0.05839525 103.96191406 2.42492676 C105.43490798 4.68113965 105.86988874 5.84469852 105.828125 8.51757812 C105.84359375 9.50757813 105.84359375 9.50757813 105.859375 10.51757812 C105.02797664 13.64754841 103.97968298 14.59736152 101.328125 16.51757812 C97.77817743 17.13424766 94.25157639 17.06351256 90.65625 17.03515625 C89.56969116 17.04216553 88.48313232 17.0491748 87.36364746 17.05639648 C83.76821415 17.07401681 80.17356646 17.0623387 76.578125 17.04882812 C74.08235523 17.05152186 71.58658648 17.05540328 69.09082031 17.0604248 C63.85864225 17.06632533 58.62666892 17.05811959 53.39453125 17.0390625 C47.34815488 17.01729381 41.30231804 17.02434537 35.25595474 17.04636812 C29.43599534 17.06671659 23.6162408 17.06455107 17.79626465 17.05284119 C15.32108485 17.05016968 12.84589131 17.05345849 10.37072754 17.0627594 C6.91344541 17.07289921 3.45720443 17.05745831 0 17.03515625 C-1.53992615 17.04730164 -1.53992615 17.04730164 -3.11096191 17.05969238 C-10.0378059 16.976761 -10.0378059 16.976761 -13.30566406 14.61022949 C-14.77865798 12.3540166 -15.21363874 11.19045773 -15.171875 8.51757812 C-15.18734375 7.52757812 -15.18734375 7.52757812 -15.203125 6.51757812 C-13.20246348 -1.01432405 -6.36010951 -0.05016214 0 0 Z " fill="#000000" transform="translate(254.671875,127.482421875)"/>
<path d="M0 0 C0.69641602 -0.00700928 1.39283203 -0.01401855 2.11035156 -0.02124023 C4.40730932 -0.03881383 6.70303021 -0.02720107 9 -0.01367188 C10.59896073 -0.01636701 12.19791987 -0.0202496 13.796875 -0.02526855 C17.14599226 -0.03116269 20.49468243 -0.0226038 23.84375 -0.00390625 C28.13478591 0.01888377 32.42482111 0.00576017 36.71582031 -0.01819611 C40.01700366 -0.03265667 43.31795011 -0.02804703 46.61914062 -0.01768494 C48.20117308 -0.01501834 49.78322711 -0.0182851 51.36523438 -0.02760315 C53.57740163 -0.03777366 55.787953 -0.02226378 58 0 C59.8871875 0.00477356 59.8871875 0.00477356 61.8125 0.00964355 C65.55520109 0.60605054 66.73159929 1.54273163 69 4.51757812 C69.53125 6.51757812 69.53125 6.51757812 69.5 8.51757812 C69.51546875 9.50757813 69.51546875 9.50757813 69.53125 10.51757812 C68.74176632 13.48975197 67.39936627 14.61414098 65 16.51757812 C61.8125 17.0255127 61.8125 17.0255127 58 17.03515625 C57.30358398 17.04216553 56.60716797 17.0491748 55.88964844 17.05639648 C53.59269068 17.07397008 51.29696979 17.06235732 49 17.04882812 C47.40103927 17.05152326 45.80208013 17.05540585 44.203125 17.0604248 C40.85400774 17.06631894 37.50531757 17.05776005 34.15625 17.0390625 C29.86521409 17.01627248 25.57517889 17.02939608 21.28417969 17.05335236 C17.98299634 17.06781292 14.68204989 17.06320328 11.38085938 17.05284119 C9.79882692 17.05017459 8.21677289 17.05344135 6.63476562 17.0627594 C4.42259837 17.07292991 2.212047 17.05742003 0 17.03515625 C-1.258125 17.03197388 -2.51625 17.0287915 -3.8125 17.0255127 C-7.55520109 16.42910571 -8.73159929 15.49242462 -11 12.51757812 C-11.53125 10.51757812 -11.53125 10.51757812 -11.5 8.51757812 C-11.51546875 7.52757812 -11.51546875 7.52757812 -11.53125 6.51757812 C-9.93997703 0.52690342 -5.4948528 0.01389899 0 0 Z " fill="#000000" transform="translate(163,303.482421875)"/>
<path d="M0 0 C1.10794922 -0.01260864 2.21589844 -0.02521729 3.35742188 -0.03820801 C4.54916016 -0.03011108 5.74089844 -0.02201416 6.96875 -0.01367188 C8.19658203 -0.01749878 9.42441406 -0.02132568 10.68945312 -0.02526855 C13.28516459 -0.02799029 15.88090336 -0.02061099 18.4765625 -0.00390625 C22.45374599 0.01749738 26.42912282 -0.0037015 30.40625 -0.02929688 C32.92708733 -0.02665365 35.44792353 -0.02152878 37.96875 -0.01367188 C39.16048828 -0.0217688 40.35222656 -0.02986572 41.58007812 -0.03820801 C43.24200195 -0.01929504 43.24200195 -0.01929504 44.9375 0 C45.91138672 0.00318237 46.88527344 0.00636475 47.88867188 0.00964355 C51.19021681 0.65961178 52.38452655 1.93295409 54.46875 4.51757812 C55 6.51757812 55 6.51757812 54.96875 8.51757812 C54.98421875 9.50757813 54.98421875 9.50757813 55 10.51757812 C54.2245785 13.43681202 52.78007479 14.6111988 50.46875 16.51757812 C47.88867188 17.0255127 47.88867188 17.0255127 44.9375 17.03515625 C43.82955078 17.04776489 42.72160156 17.06037354 41.58007812 17.07336426 C40.38833984 17.06526733 39.19660156 17.05717041 37.96875 17.04882812 C36.12700195 17.05456848 36.12700195 17.05456848 34.24804688 17.0604248 C31.65233541 17.06314654 29.05659664 17.05576724 26.4609375 17.0390625 C22.48375401 17.01765887 18.50837718 17.03885775 14.53125 17.06445312 C12.01041267 17.0618099 9.48957647 17.05668503 6.96875 17.04882812 C5.77701172 17.05692505 4.58527344 17.06502197 3.35742188 17.07336426 C1.69549805 17.05445129 1.69549805 17.05445129 0 17.03515625 C-0.97388672 17.03197388 -1.94777344 17.0287915 -2.95117188 17.0255127 C-6.25271681 16.37554447 -7.44702655 15.10220216 -9.53125 12.51757812 C-10.0625 10.51757812 -10.0625 10.51757812 -10.03125 8.51757812 C-10.04671875 7.52757812 -10.04671875 7.52757812 -10.0625 6.51757812 C-8.67664018 1.3002235 -4.95665502 0.01619688 0 0 Z " fill="#000000" transform="translate(305.53125,239.482421875)"/>
<path d="M0 0 C0.87269531 -0.0038269 1.74539062 -0.00765381 2.64453125 -0.01159668 C4.48699092 -0.0143149 6.32948924 -0.00695994 8.171875 0.00976562 C10.99045934 0.03117752 13.80649485 0.00996199 16.625 -0.015625 C18.41667229 -0.01298171 20.20834299 -0.00785669 22 0 C22.84175781 -0.00809692 23.68351562 -0.01619385 24.55078125 -0.02453613 C30.38715618 0.06889601 30.38715618 0.06889601 33.52929688 2.43945312 C35.12144695 4.7039853 35.542797 5.7922417 35.5 8.53125 C35.5103125 9.19125 35.520625 9.85125 35.53125 10.53125 C34.72011424 13.58493756 33.53019712 14.62236769 31 16.53125 C28.00263779 17.13239553 25.04890723 17.09182764 22 17.0625 C21.12730469 17.0663269 20.25460938 17.07015381 19.35546875 17.07409668 C17.51300908 17.0768149 15.67051076 17.06945994 13.828125 17.05273438 C11.00954066 17.03132248 8.19350515 17.05253801 5.375 17.078125 C3.58332771 17.07548171 1.79165701 17.07035669 0 17.0625 C-0.84175781 17.07059692 -1.68351563 17.07869385 -2.55078125 17.08703613 C-8.38715618 16.99360399 -8.38715618 16.99360399 -11.52929688 14.62304688 C-13.12144695 12.3585147 -13.542797 11.2702583 -13.5 8.53125 C-13.51546875 7.54125 -13.51546875 7.54125 -13.53125 6.53125 C-11.69061453 -0.39820116 -5.94975317 -0.05723107 0 0 Z " fill="#000000" transform="translate(165,271.46875)"/>
</svg>
