<?xml version="1.0" encoding="UTF-8"?>
<svg version="1.1" xmlns="http://www.w3.org/2000/svg" width="512" height="512">
<path d="M0 0 C0.95069073 -0.00382555 1.90138147 -0.00765109 2.88088101 -0.01159257 C6.04492753 -0.02185538 9.2087903 -0.01794321 12.37284851 -0.01396179 C14.65024482 -0.01831201 16.92763967 -0.02349619 19.20503235 -0.02944946 C25.37661245 -0.04281801 31.54813123 -0.04342046 37.71972299 -0.04088616 C42.87858991 -0.0398149 48.03744451 -0.04470385 53.19630879 -0.04949158 C66.06674931 -0.06121301 78.93714588 -0.06036595 91.80758699 -0.05393478 C102.96340085 -0.04876819 114.11912732 -0.06001669 125.2749239 -0.07903299 C136.75168406 -0.0984452 148.2283926 -0.10637051 159.70517033 -0.10290974 C166.13966275 -0.10109977 172.57407515 -0.1037045 179.00855446 -0.11762428 C185.06199188 -0.13023016 191.11525488 -0.12823228 197.16868973 -0.11521339 C199.38414889 -0.11285401 201.59962043 -0.11555929 203.81506538 -0.12383652 C217.48094709 -0.17119307 229.84010037 0.13939605 242.27787781 6.44819641 C243.890495 7.24290344 243.890495 7.24290344 245.53569031 8.05366516 C254.13204503 12.94665102 261.3153742 20.12455885 268.25517273 27.07246399 C269.10370316 27.91427719 269.95223358 28.75609039 270.82647705 29.62341309 C273.12354418 31.90488379 275.41613309 34.19072303 277.70605636 36.47936082 C279.14329137 37.91516255 280.58194621 39.34952606 282.02109718 40.78340721 C287.059236 45.80312146 292.09226368 50.82789428 297.1204071 55.85762024 C301.78060857 60.51902376 306.45186275 65.16914331 311.12841338 69.81413919 C315.16817149 73.82762352 319.200056 77.84890634 323.22606164 81.8761856 C325.61982999 84.27045995 328.01648915 86.66163702 330.42117882 89.04494667 C333.10337096 91.70740919 335.77243614 94.38241021 338.43876648 97.06074524 C339.22075409 97.83149384 340.0027417 98.60224243 340.8084259 99.39634705 C347.67395951 106.34017525 353.2661025 114.23840369 356.96537781 123.32319641 C357.34307312 124.22167297 357.72076843 125.12014954 358.10990906 126.04585266 C360.95256126 134.8080353 361.44409494 143.22294501 361.42030334 152.39012146 C361.42483446 153.68186275 361.42936557 154.97360405 361.43403399 156.30448902 C361.44619307 159.8653307 361.44601196 163.42607794 361.44364524 166.98693562 C361.44323526 170.83715046 361.45429349 174.68733574 361.46376038 178.53753662 C361.48033286 186.07206853 361.48586824 193.60656914 361.48698513 201.14111777 C361.48793748 207.27013257 361.49205711 213.3991371 361.49838638 219.52814865 C361.51598933 236.93001828 361.52522685 254.3318633 361.52372544 271.73374189 C361.52364552 272.67076188 361.52356561 273.60778188 361.52348328 274.57319641 C361.52340152 275.51136931 361.52331975 276.44954221 361.52323551 277.41614459 C361.52242311 292.61077941 361.54155188 307.80531498 361.56976001 322.9999211 C361.59853893 338.62613347 361.61229752 354.25229753 361.61057246 369.87853706 C361.60991024 378.64158756 361.61532852 387.40453405 361.63692856 396.16756058 C361.6552065 403.63029657 361.65943379 411.09288139 361.64590971 418.55563016 C361.63941294 422.35718788 361.63914226 426.15845617 361.65661621 429.95998573 C361.76331486 454.7429035 360.46874658 476.52345029 342.15287781 495.26069641 C328.21768768 507.50158063 313.21638104 512.74436601 294.83158875 512.64164734 C293.53138165 512.64632731 292.23117455 512.65100728 290.89156723 512.65582907 C287.31187583 512.66826697 283.73242664 512.66220194 280.15273476 512.65287042 C276.28081813 512.64605044 272.4089416 512.6565757 268.53703308 512.66481018 C260.96351809 512.67811839 253.39009252 512.6752828 245.8165741 512.66657226 C239.6589332 512.65978463 233.50131728 512.65888365 227.34367371 512.66214371 C226.02682591 512.66283326 226.02682591 512.66283326 224.68337512 512.66353673 C222.89968903 512.66449595 221.11600295 512.6654686 219.33231688 512.66645451 C202.62444627 512.67499987 185.91662513 512.66518768 169.20876265 512.64905341 C154.88672419 512.63565101 140.5647587 512.63797934 126.24272156 512.65180969 C109.59278793 512.6678806 92.94289761 512.67417598 76.29295731 512.6649729 C74.51599885 512.6640173 72.73904038 512.66307419 70.96208191 512.66214371 C70.08788754 512.66168088 69.21369318 512.66121805 68.31300807 512.6607412 C62.16599277 512.65815585 56.01900505 512.6625125 49.87199402 512.66958237 C42.37621243 512.67801437 34.88052504 512.67568158 27.38475418 512.65974014 C23.56360951 512.65188023 19.74262163 512.64872665 15.92147827 512.65868759 C11.77223921 512.66933986 7.62339272 512.65658208 3.47416687 512.64164734 C2.27638988 512.6483395 1.0786129 512.65503167 -0.15546036 512.66192663 C-16.80168812 512.54594595 -32.93447614 506.0727289 -44.84712219 494.26069641 C-59.00621592 477.85520801 -63.48599324 460.41557622 -63.35505676 439.25874329 C-63.35967804 437.60641178 -63.36603911 435.9540844 -63.37396574 434.30176544 C-63.39051394 429.8080609 -63.38247957 425.31470038 -63.37002087 420.82099533 C-63.36091263 415.95655348 -63.37496853 411.09216784 -63.38594055 406.22773743 C-63.40366911 396.71677723 -63.39991112 387.20594375 -63.38828999 377.69497871 C-63.37923357 369.96093334 -63.3780412 362.22692331 -63.38238525 354.49287415 C-63.38299819 353.38951705 -63.38361112 352.28615996 -63.38424262 351.14936781 C-63.38552161 348.90748404 -63.38681846 346.66560029 -63.38813299 344.42371655 C-63.3995222 323.43221141 -63.38645115 302.4407763 -63.36493152 281.44928265 C-63.34706207 263.46190635 -63.35016664 245.47463334 -63.36860657 227.48725891 C-63.39004262 206.56767834 -63.39842372 185.64815905 -63.38615751 164.72856903 C-63.3848834 162.49521892 -63.38362591 160.2618688 -63.38238525 158.02851868 C-63.38176815 156.92984577 -63.38115105 155.83117286 -63.38051525 154.69920683 C-63.37707055 146.9800236 -63.38287166 139.26087945 -63.39230347 131.54170227 C-63.40355525 122.12661564 -63.40041676 112.71166229 -63.37918049 103.29659081 C-63.36871277 98.49859157 -63.36447475 93.70081406 -63.3777771 88.90281677 C-63.38979612 84.50092433 -63.3829838 80.09945678 -63.36186689 75.69760227 C-63.35744074 74.115038 -63.35957594 72.53243697 -63.36937004 70.94989681 C-63.4853102 50.63998573 -58.40424498 32.17614837 -43.84712219 17.26069641 C-31.07744688 5.92179705 -16.98599407 -0.07360274 0 0 Z M-23.17915344 39.43257141 C-32.83238242 50.01269123 -33.14352075 61.5485051 -33.1078186 75.11320496 C-33.11084108 76.7381556 -33.11473105 78.36310482 -33.11941117 79.98805153 C-33.12968744 84.44291528 -33.12751029 88.89769852 -33.12323058 93.35256886 C-33.12076269 98.16112589 -33.12977829 102.96966357 -33.13726807 107.7782135 C-33.15001529 117.19464318 -33.15180873 126.61104433 -33.1494678 136.02748118 C-33.14768453 143.68167063 -33.14943449 151.33585142 -33.15369225 158.99003983 C-33.15428743 160.07956101 -33.15488262 161.16908219 -33.15549585 162.29161916 C-33.1567076 164.50500758 -33.15792174 166.71839599 -33.15913823 168.93178441 C-33.17001383 189.68746519 -33.16785116 210.44312973 -33.16175338 231.19881143 C-33.15658407 250.18375586 -33.16784 269.16864899 -33.1868516 288.15358327 C-33.20622673 307.65112365 -33.21448657 327.14863974 -33.21072835 346.64618981 C-33.20881583 357.59105183 -33.21130884 368.53587017 -33.22544289 379.48072433 C-33.23735349 388.79806807 -33.23876513 398.11534125 -33.22665272 407.43268596 C-33.22076185 412.18530164 -33.21967043 416.93778825 -33.23165512 421.69039536 C-33.24250624 426.04411043 -33.23941972 430.39758853 -33.22539344 434.75129248 C-33.2227444 436.32322614 -33.22511956 437.89517833 -33.2331293 439.46709381 C-33.29207707 451.9023135 -32.17013493 462.5082967 -23.84712219 472.26069641 C-12.83279219 482.76510372 -1.30654342 483.41455876 13.27819824 483.39440918 C14.48600392 483.39667474 15.69380959 483.39894029 16.93821543 483.4012745 C20.27378766 483.40649347 23.60930579 483.40726217 26.94487822 483.40608013 C30.54893922 483.40587542 34.15299229 483.41140149 37.75704956 483.4161377 C44.81157855 483.42442954 51.86609918 483.42719187 58.92063264 483.42775007 C64.65690497 483.4282259 70.39317456 483.43028398 76.12944603 483.4334507 C92.40636835 483.44225303 108.68328409 483.4468707 124.96020881 483.44612022 C125.83694632 483.44608027 126.71368383 483.44604031 127.61698914 483.44599915 C128.49480168 483.44595826 129.37261423 483.44591738 130.27702715 483.44587526 C144.50192344 483.44546885 158.72679326 483.45503844 172.95168189 483.46913751 C187.57096059 483.48351273 202.19022638 483.49040707 216.80951232 483.48954374 C225.01181163 483.48921218 233.21408318 483.49194127 241.41637611 483.50272179 C248.39983854 483.51184184 255.38326062 483.51398967 262.36672644 483.50721236 C265.92656644 483.50395484 269.48632908 483.50386263 273.04616165 483.51256561 C276.91301207 483.5219216 280.77975047 483.51563462 284.64660645 483.50793457 C286.31794017 483.51564992 286.31794017 483.51564992 288.02303821 483.52352113 C301.66308476 483.46366939 313.19762081 481.21595341 323.15287781 471.26069641 C330.12221997 461.60055308 331.45524436 453.01617537 331.39338684 441.36506653 C331.39509569 440.18216805 331.39680454 438.99926957 331.39856517 437.78052568 C331.40128045 434.51488744 331.39506579 431.24940969 331.38500905 427.9837904 C331.3763447 424.45560921 331.37929682 420.92743505 331.3808136 417.39924622 C331.38186057 411.29228966 331.37560367 405.18537595 331.36433792 399.07843018 C331.34806033 390.24889785 331.3428726 381.41938617 331.34036194 372.58984047 C331.33598838 358.26331718 331.32268848 343.9368167 331.30375671 329.61030579 C331.28538914 315.69624444 331.27123693 301.78218931 331.26274109 287.86811829 C331.26221564 287.00996535 331.26169019 286.15181241 331.26114883 285.26765484 C331.25853869 280.96240743 331.25601129 276.65715998 331.25352502 272.3519125 C331.23280308 236.65482421 331.19758679 200.95776242 331.15287781 165.26069641 C330.08197655 165.24856613 330.08197655 165.24856613 328.98944092 165.2361908 C322.18102883 165.15746208 315.37277671 165.06995388 308.56459904 164.97316933 C305.06647572 164.92373422 301.56837523 164.87741164 298.07011414 164.83882141 C267.62534901 164.4981654 240.13469876 163.63143133 216.15287781 142.26069641 C215.39362 141.59554016 214.63436218 140.93038391 213.85209656 140.24507141 C194.76313949 122.44189902 188.35837733 98.00331228 187.23814392 72.75221252 C186.96388137 64.7381311 187.05283086 56.71553218 187.09037781 48.69819641 C187.09541 46.80041115 187.09996982 44.90262458 187.10404968 43.00483704 C187.11490266 38.42342347 187.13206937 33.84207512 187.15287781 29.26069641 C163.09147706 29.21392636 139.03008314 29.17868304 114.96864605 29.15707207 C103.7959103 29.14676995 92.62320283 29.13272997 81.45048523 29.1098175 C71.70965026 29.08985103 61.96883578 29.07697224 52.22798091 29.07251942 C47.07274482 29.06991756 41.91756734 29.06382424 36.76235008 29.0492363 C31.90412195 29.03560092 27.04597624 29.03148577 22.18773079 29.03448105 C20.41047085 29.03393354 18.63320798 29.02999175 16.85596466 29.02228546 C2.13308779 28.96160945 -11.7132078 29.0423781 -23.17915344 39.43257141 Z M216.15287781 30.26069641 C216.12777653 35.52192352 216.10983229 40.78311423 216.09794617 46.04438782 C216.09298039 47.82662057 216.08620553 49.6088494 216.07743835 51.3910675 C215.85166963 88.00859841 215.85166963 88.00859841 234.36381531 118.56538391 C249.25359542 132.95466721 265.54584322 135.63712346 285.77006531 135.45600891 C286.99323456 135.45317902 288.21640381 135.45034912 289.47663879 135.44743347 C293.32715762 135.43636974 297.17743104 135.41129201 301.02787781 135.38569641 C303.661989 135.37564874 306.29610389 135.36652604 308.93022156 135.35835266 C315.33785529 135.33647587 321.74534901 135.3031393 328.15287781 135.26069641 C326.94950661 127.43878363 320.10359225 121.90413015 314.81108093 116.59663391 C313.97145813 115.7470813 313.13183533 114.89752869 312.26676941 114.02223206 C309.97280029 111.70414508 307.67431774 109.39067263 305.37272072 107.08016205 C303.93045724 105.63201086 302.48936484 104.18270399 301.0486145 102.73304749 C296.52755091 98.1846725 292.00252505 93.64029553 287.47165728 89.10168648 C282.26568988 83.88677202 277.07303495 78.65907162 271.89167833 73.41970634 C267.86986972 69.35446408 263.83640999 65.30101999 259.79415846 61.25610542 C257.38764302 58.84750778 254.98609144 56.43444245 252.59661865 54.00892639 C249.92176798 51.29972666 247.22835227 48.61035496 244.52983093 45.92475891 C243.36967468 44.73695831 243.36967468 44.73695831 242.18608093 43.52516174 C235.07880605 36.52327441 226.37891751 30.7255164 216.15287781 30.26069641 Z " fill="#000000" transform="translate(106.84712219238281,-0.2606964111328125)"/>
<path d="M0 0 C0.92035829 -0.00367669 1.84071658 -0.00735338 2.78896451 -0.01114148 C5.89196903 -0.02220879 8.9949401 -0.02602731 12.09796143 -0.02983093 C14.31509509 -0.03609327 16.53222769 -0.04273986 18.74935913 -0.04974365 C24.78663745 -0.06717443 30.82390784 -0.077711 36.8612051 -0.08594918 C40.63056769 -0.09109475 44.3999278 -0.09717067 48.16928864 -0.10346031 C58.60407044 -0.12033284 69.0388511 -0.13496783 79.47364426 -0.14220905 C82.18207551 -0.14411897 84.89050676 -0.1460393 87.59893799 -0.147995 C88.27211206 -0.14847874 88.94528613 -0.14896248 89.63885942 -0.14946087 C100.54376154 -0.15776111 111.44855397 -0.18309736 122.35340819 -0.21557567 C133.54739899 -0.24864348 144.74135009 -0.26632477 155.93539357 -0.26985329 C162.22117 -0.27220738 168.5067731 -0.28121448 174.79250336 -0.30631447 C180.70550241 -0.32954405 186.61821338 -0.33384891 192.53124619 -0.32355309 C194.70246461 -0.32305638 196.87369698 -0.3294164 199.04487228 -0.34310913 C202.00763871 -0.36074973 204.96936251 -0.35376017 207.93212891 -0.34057617 C209.22289845 -0.35703004 209.22289845 -0.35703004 210.53974414 -0.37381631 C216.8470692 -0.30599028 220.2230977 1.5636072 225.03253174 5.70967102 C227.87633797 9.1521733 227.54838222 13.40632403 227.50518799 17.63935852 C226.97924673 22.26475975 224.54578912 24.9821115 221.15753174 27.95967102 C216.76763032 30.65025576 212.36458755 30.29262656 207.39573669 30.28761292 C206.48269109 30.29058404 205.56964548 30.29355516 204.62893182 30.29661632 C201.55666884 30.30531688 198.48444475 30.30681271 195.41217041 30.30830383 C193.21459367 30.31293103 191.01701774 30.31795555 188.81944275 30.323349 C182.84006969 30.3364841 176.86070786 30.34292007 170.88132262 30.34735966 C167.14763407 30.35028846 163.41394861 30.35439289 159.68026161 30.35886383 C148.00414791 30.3725414 136.32804066 30.38222285 124.65191954 30.38606572 C123.30800577 30.38650919 121.964092 30.38695575 120.62017822 30.3874054 C119.62023721 30.38773754 119.62023721 30.38773754 118.60009537 30.38807639 C107.7987426 30.39202427 96.9974573 30.40947811 86.1961306 30.43276492 C75.10606439 30.4564812 64.01602627 30.46868293 52.92593366 30.47010684 C46.69945055 30.47115614 40.4730626 30.47709058 34.24660301 30.49492645 C28.39025829 30.51137548 22.53408058 30.513578 16.67772102 30.50478745 C14.52747018 30.50401539 12.37721047 30.50838193 10.22698212 30.5182457 C7.29288057 30.53091666 4.35937483 30.52511464 1.42527771 30.5146637 C0.5732287 30.5227201 -0.27882031 30.53077651 -1.15668899 30.53907704 C-6.10704347 30.49780298 -9.48800076 29.88216568 -13.77996826 27.14717102 C-18.27480543 22.16640551 -19.07979884 19.18269939 -18.99481201 12.61982727 C-18.59231685 7.98747389 -16.61074204 5.87663092 -13.21746826 2.89717102 C-8.82813634 -0.25414421 -5.25371953 -0.00111404 0 0 Z " fill="#000000" transform="translate(151.77996826171875,338.8528289794922)"/>
<path d="M0 0 C0.91304561 -0.00297112 1.82609122 -0.00594224 2.76680487 -0.0090034 C5.83906786 -0.01770397 8.91129194 -0.01919979 11.98356628 -0.02069092 C14.18114302 -0.02531811 16.37871895 -0.03034264 18.57629395 -0.03573608 C24.55566701 -0.04887118 30.53502883 -0.05530715 36.51441407 -0.05974674 C40.24810262 -0.06267555 43.98178808 -0.06677998 47.71547508 -0.07125092 C59.39158879 -0.08492848 71.06769604 -0.09460993 82.74381715 -0.09845281 C84.08773093 -0.09889627 85.4316447 -0.09934284 86.77555847 -0.09979248 C87.77549948 -0.10012463 87.77549948 -0.10012463 88.79564133 -0.10046348 C99.59699409 -0.10441136 110.39827939 -0.12186519 121.1996061 -0.145152 C132.2896723 -0.16886829 143.37971043 -0.18107002 154.46980304 -0.18249393 C160.69628614 -0.18354322 166.9226741 -0.18947767 173.14913368 -0.20731354 C179.0054784 -0.22376257 184.86165612 -0.22596508 190.71801567 -0.21717453 C192.86826651 -0.21640247 195.01852622 -0.22076902 197.16875458 -0.23063278 C200.10285613 -0.24330375 203.03636186 -0.23750172 205.97045898 -0.22705078 C207.2485325 -0.23913539 207.2485325 -0.23913539 208.55242568 -0.25146413 C214.64398136 -0.20067518 218.77112686 1.06080678 223.48820496 5.14044189 C226.71127763 8.96037988 226.45289103 12.9372175 226.39054871 17.70294189 C225.98654589 22.28653746 223.99460415 24.40343262 220.67570496 27.39044189 C216.08257772 30.60563096 211.74536087 30.28632636 206.35140991 30.28088379 C205.4383643 30.28385491 204.5253187 30.28682603 203.58460504 30.28988719 C200.51234205 30.29858776 197.44011797 30.30008358 194.36784363 30.30157471 C192.17026689 30.3062019 189.97269096 30.31122643 187.77511597 30.31661987 C181.79574291 30.32975497 175.81638108 30.33619094 169.83699584 30.34063053 C166.10330729 30.34355934 162.36962183 30.34766377 158.63593483 30.3521347 C146.95982112 30.36581227 135.28371387 30.37549372 123.60759276 30.3793366 C122.26367899 30.37978006 120.91976521 30.38022662 119.57585144 30.38067627 C118.57591043 30.38100841 118.57591043 30.38100841 117.55576859 30.38134727 C106.75441582 30.38529515 95.95313052 30.40274898 85.15180381 30.42603579 C74.06173761 30.44975208 62.97169948 30.46195381 51.88160688 30.46337771 C45.65512377 30.46442701 39.42873582 30.47036145 33.20227623 30.48819733 C27.34593151 30.50464636 21.48975379 30.50684887 15.63339424 30.49805832 C13.4831434 30.49728626 11.33288369 30.50165281 9.18265533 30.51151657 C6.24855378 30.52418754 3.31504805 30.51838551 0.38095093 30.50793457 C-0.47109808 30.51599097 -1.32314709 30.52404738 -2.20101577 30.53234792 C-7.15137025 30.49107385 -10.53232754 29.87543655 -14.82429504 27.14044189 C-19.27011426 22.21399358 -20.17516486 19.1890541 -20.10945129 12.68341064 C-19.58856249 8.03822417 -17.16540292 5.31899124 -13.76179504 2.32794189 C-9.37189363 -0.36264284 -4.96885086 -0.00501364 0 0 Z " fill="#000000" transform="translate(152.8242950439453,240.85955810546875)"/>
<path d="M0 0 C1.12425385 -0.00426498 2.24850769 -0.00852997 3.40682983 -0.01292419 C5.24286774 -0.01224442 5.24286774 -0.01224442 7.11599731 -0.0115509 C9.06069412 -0.01658882 9.06069412 -0.01658882 11.04467773 -0.02172852 C14.59432997 -0.03054735 18.14395808 -0.03290573 21.6936202 -0.0335443 C23.91337553 -0.03425599 26.13312476 -0.03639255 28.35287857 -0.03904152 C36.10269814 -0.04828781 43.85250053 -0.05237729 51.60232544 -0.05158997 C58.81696261 -0.05098931 66.03152498 -0.06154065 73.24614322 -0.07733363 C79.44842882 -0.09042494 85.65069001 -0.0957732 91.85298932 -0.09513456 C95.55373143 -0.09488004 99.25440704 -0.09770538 102.95513535 -0.10831261 C107.08432857 -0.1198253 111.21335494 -0.11523703 115.34255981 -0.10920715 C116.56253662 -0.11482666 117.78251343 -0.12044617 119.03945923 -0.12623596 C132.74265905 -0.07536576 132.74265905 -0.07536576 138.1711731 4.50871277 C141.85532335 8.92969307 142.81559282 12.13119475 142.67507935 17.81730652 C142.13912872 21.74099443 140.72100873 23.94136731 138.3586731 27.13371277 C134.60622789 29.89879108 131.95518124 30.5106865 127.33097839 30.52139282 C125.51621758 30.53624977 125.51621758 30.53624977 123.66479492 30.55140686 C122.34569122 30.54690521 121.02658752 30.54240356 119.66751099 30.5377655 C118.25780191 30.54347065 116.84809746 30.55043547 115.43840027 30.55856323 C111.61603463 30.57649423 107.79389855 30.57532641 103.9715035 30.56962085 C100.77815457 30.56652883 97.58484974 30.5726216 94.39150709 30.57865959 C86.85684343 30.59270307 79.32229315 30.5911451 71.78762817 30.57975769 C64.01960383 30.56827689 56.25192475 30.58235172 48.48394591 30.60915416 C41.80947187 30.63131968 35.13510615 30.63794663 28.46059793 30.63207775 C24.47646119 30.62870895 20.49254575 30.63111796 16.50844002 30.64832878 C12.76133637 30.66380955 9.01474368 30.65983037 5.26766014 30.64102364 C3.24112527 30.63558778 1.2145674 30.64984328 -0.81192017 30.66471863 C-11.86999499 30.57504255 -11.86999499 30.57504255 -16.6413269 26.13371277 C-20.24189964 22.17308276 -20.14463573 17.91875618 -19.9928894 12.79386902 C-19.49381864 9.01756688 -18.21106819 6.91181146 -15.6413269 4.13371277 C-10.73179847 0.48303778 -5.98664378 0.01029562 0 0 Z " fill="#000000" transform="translate(152.64132690429688,142.8662872314453)"/>
</svg>
